<?xml version="1.0" encoding="UTF-8"?>
<svg xmlns="http://www.w3.org/2000/svg" xmlns:xlink="http://www.w3.org/1999/xlink" width="375pt" height="374.999991pt" viewBox="0 0 375 374.999991" version="1.2">
<defs>
<clipPath id="clip1">
  <path d="M 11.960938 4 L 354 4 L 354 372 L 11.960938 372 Z M 11.960938 4 "/>
</clipPath>
</defs>
<g id="surface1">
<path style=" stroke:none;fill-rule:nonzero;fill:rgb(57.649231%,89.408875%,58.039856%);fill-opacity:1;" d="M 341.5 157.667969 C 335.960938 142.601562 326.109375 128.625 311.65625 117.644531 C 309.570312 116.058594 307.382812 114.621094 305.148438 113.253906 L 202.207031 50.269531 C 205.265625 55.253906 207.78125 60.445312 209.742188 65.789062 C 212.578125 73.503906 214.210938 81.398438 214.757812 89.28125 L 217.304688 90.832031 C 219.539062 92.199219 221.726562 93.644531 223.8125 95.222656 C 238.273438 106.203125 248.117188 120.183594 253.65625 135.246094 C 267.941406 174.082031 252.15625 217.613281 216.945312 239.378906 L 78.433594 325.003906 C 67.933594 331.835938 56.828125 336.492188 45.59375 339.144531 C 75.847656 367.738281 125.671875 373.851562 166.277344 347.410156 L 304.789062 261.800781 C 340 240.035156 355.785156 196.503906 341.5 157.667969 Z M 341.5 157.667969 "/>
<path style=" stroke:none;fill-rule:nonzero;fill:rgb(49.409485%,76.078796%,49.798584%);fill-opacity:1;" d="M 284.503906 104.070312 C 298.964844 115.050781 308.804688 129.03125 314.34375 144.09375 C 328.632812 182.933594 312.84375 226.460938 277.636719 248.226562 L 139.125 333.84375 C 112.070312 351.460938 80.933594 354.609375 54.210938 346.300781 C 84.730469 368.566406 129.320312 371.46875 166.269531 347.410156 L 304.789062 261.800781 C 340 240.042969 355.785156 196.511719 341.5 157.667969 C 335.960938 142.601562 326.109375 128.625 311.65625 117.644531 C 309.570312 116.058594 307.382812 114.621094 305.148438 113.253906 Z M 284.503906 104.070312 "/>
<path style=" stroke:none;fill-rule:nonzero;fill:rgb(90.19928%,16.859436%,29.019165%);fill-opacity:1;" d="M 216.953125 239.386719 C 252.164062 217.628906 267.949219 174.097656 253.664062 135.253906 C 248.125 120.191406 238.273438 106.210938 223.820312 95.230469 C 221.734375 93.644531 219.546875 92.207031 217.3125 90.839844 L 214.765625 89.289062 C 216.976562 121.0625 201.261719 152.488281 173.042969 169.929688 L 34.515625 255.535156 C 29.382812 258.878906 24.101562 261.691406 18.734375 264.011719 L 18.734375 281.449219 C 18.734375 282.253906 18.6875 283.066406 18.765625 283.863281 C 21.132812 306.699219 31.125 325.488281 45.585938 339.144531 C 56.820312 336.492188 67.933594 331.835938 78.425781 325.003906 Z M 216.953125 239.386719 "/>
<path style=" stroke:none;fill-rule:nonzero;fill:rgb(70.979309%,88.238525%,97.648621%);fill-opacity:1;" d="M 214.757812 89.28125 C 214.210938 81.398438 212.578125 73.503906 209.742188 65.789062 C 207.78125 60.445312 205.265625 55.253906 202.207031 50.269531 L 166.269531 28.292969 C 142.304688 12.691406 115.179688 8.425781 90.753906 13.425781 C 54.015625 20.929688 23.367188 49.402344 18.765625 91.839844 C 18.679688 92.636719 18.734375 146.132812 18.734375 146.945312 L 18.734375 264.003906 C 24.101562 261.683594 29.382812 258.871094 34.515625 255.527344 L 173.035156 169.914062 C 201.253906 152.480469 216.96875 121.0625 214.757812 89.28125 Z M 214.757812 89.28125 "/>
<g clip-path="url(#clip1)" clip-rule="nonzero">
<path style=" stroke:none;fill-rule:nonzero;fill:rgb(0%,18.03894%,34.118652%);fill-opacity:1;" d="M 347.875 155.324219 C 341.632812 138.347656 330.523438 123.445312 315.765625 112.238281 C 313.710938 110.675781 311.398438 109.117188 308.695312 107.46875 L 205.742188 44.484375 L 169.894531 22.554688 C 145.5625 6.734375 116.976562 1.125 89.394531 6.773438 C 47.007812 15.441406 16.632812 48.542969 12.023438 91.105469 C 11.960938 91.675781 11.90625 92.207031 11.945312 145.78125 L 11.945312 281.441406 L 11.9375 281.988281 C 11.929688 282.691406 11.914062 283.574219 12.015625 284.558594 C 14.4375 307.90625 24.4375 328.492188 40.929688 344.074219 C 57.027344 359.292969 78.535156 368.738281 101.480469 370.671875 C 104.503906 370.929688 107.515625 371.054688 110.515625 371.054688 C 131.390625 371.054688 151.757812 364.941406 169.902344 353.140625 L 308.351562 267.570312 C 346.507812 243.996094 363.121094 196.785156 347.875 155.324219 Z M 25.546875 92.316406 C 29.609375 55.855469 55.710938 27.515625 92.121094 20.0625 C 116.210938 15.144531 141.234375 20.078125 162.574219 33.972656 C 162.628906 34.003906 162.683594 34.042969 162.738281 34.074219 L 197.207031 55.160156 C 197.449219 55.566406 197.691406 55.980469 197.925781 56.394531 C 198.183594 56.847656 198.441406 57.300781 198.691406 57.761719 C 199.058594 58.449219 199.417969 59.140625 199.761719 59.835938 C 199.980469 60.273438 200.207031 60.710938 200.417969 61.15625 C 200.785156 61.929688 201.136719 62.710938 201.480469 63.492188 C 201.644531 63.867188 201.824219 64.242188 201.980469 64.617188 C 202.472656 65.78125 202.941406 66.953125 203.371094 68.132812 C 205.914062 75.058594 207.46875 82.328125 207.984375 89.757812 C 210.070312 119.675781 195.308594 148.179688 169.464844 164.148438 L 30.945312 249.765625 C 30.898438 249.796875 30.851562 249.820312 30.8125 249.851562 C 29.765625 250.53125 28.703125 251.1875 27.625 251.828125 C 27.304688 252.023438 26.976562 252.210938 26.65625 252.398438 C 26.28125 252.617188 25.898438 252.820312 25.523438 253.039062 L 25.523438 145.773438 C 25.492188 114.589844 25.5 94.785156 25.546875 92.316406 Z M 25.523438 283.160156 C 25.507812 282.980469 25.507812 282.566406 25.515625 282.207031 L 25.523438 268.367188 C 25.5625 268.351562 25.601562 268.328125 25.640625 268.3125 C 25.851562 268.210938 26.054688 268.101562 26.257812 268 C 27.34375 267.46875 28.414062 266.921875 29.484375 266.351562 C 29.882812 266.140625 30.28125 265.921875 30.6875 265.707031 C 31.59375 265.214844 32.492188 264.707031 33.390625 264.183594 C 33.765625 263.964844 34.148438 263.746094 34.523438 263.527344 C 35.75 262.792969 36.96875 262.050781 38.15625 261.269531 L 176.605469 175.691406 C 177.488281 175.144531 178.363281 174.582031 179.230469 174.003906 C 179.519531 173.816406 179.792969 173.621094 180.074219 173.425781 C 180.652344 173.035156 181.222656 172.644531 181.785156 172.242188 C 182.113281 172.007812 182.433594 171.773438 182.753906 171.539062 C 183.269531 171.164062 183.777344 170.789062 184.285156 170.40625 C 184.621094 170.15625 184.949219 169.898438 185.277344 169.640625 C 185.761719 169.257812 186.246094 168.875 186.722656 168.492188 C 187.050781 168.226562 187.371094 167.960938 187.691406 167.695312 C 188.175781 167.296875 188.644531 166.890625 189.121094 166.476562 C 189.425781 166.210938 189.730469 165.953125 190.027344 165.6875 C 190.535156 165.234375 191.035156 164.773438 191.527344 164.3125 C 191.777344 164.078125 192.027344 163.851562 192.277344 163.625 C 193.003906 162.929688 193.722656 162.238281 194.433594 161.527344 C 194.550781 161.410156 194.660156 161.285156 194.777344 161.167969 C 195.363281 160.566406 195.949219 159.957031 196.519531 159.339844 C 196.777344 159.066406 197.019531 158.785156 197.269531 158.511719 C 197.691406 158.042969 198.121094 157.574219 198.535156 157.097656 C 198.808594 156.785156 199.082031 156.464844 199.355469 156.144531 C 199.738281 155.699219 200.113281 155.246094 200.488281 154.792969 C 200.761719 154.457031 201.035156 154.121094 201.300781 153.785156 C 201.660156 153.332031 202.019531 152.878906 202.371094 152.417969 C 202.628906 152.074219 202.894531 151.742188 203.144531 151.398438 C 203.496094 150.921875 203.847656 150.445312 204.191406 149.960938 C 204.433594 149.625 204.667969 149.296875 204.902344 148.960938 C 205.273438 148.421875 205.632812 147.882812 205.992188 147.34375 C 206.1875 147.054688 206.382812 146.773438 206.570312 146.476562 C 207.101562 145.65625 207.625 144.828125 208.132812 143.992188 C 208.265625 143.773438 208.390625 143.546875 208.523438 143.320312 C 208.898438 142.6875 209.273438 142.054688 209.632812 141.417969 C 209.820312 141.082031 210.007812 140.738281 210.195312 140.394531 C 210.484375 139.863281 210.773438 139.332031 211.054688 138.792969 C 211.25 138.417969 211.4375 138.042969 211.632812 137.660156 C 211.890625 137.144531 212.148438 136.628906 212.398438 136.113281 C 212.585938 135.722656 212.773438 135.339844 212.953125 134.949219 C 213.195312 134.425781 213.4375 133.902344 213.671875 133.378906 C 213.84375 132.996094 214.015625 132.605469 214.179688 132.214844 C 214.414062 131.660156 214.640625 131.109375 214.867188 130.554688 C 215.015625 130.1875 215.164062 129.820312 215.3125 129.453125 C 215.5625 128.8125 215.804688 128.164062 216.039062 127.523438 C 216.140625 127.234375 216.257812 126.953125 216.359375 126.664062 C 216.6875 125.734375 217 124.804688 217.304688 123.867188 C 217.382812 123.617188 217.460938 123.359375 217.539062 123.109375 C 217.757812 122.40625 217.96875 121.710938 218.171875 121 C 218.273438 120.644531 218.367188 120.277344 218.46875 119.910156 C 218.632812 119.308594 218.796875 118.707031 218.945312 118.097656 C 219.046875 117.707031 219.132812 117.308594 219.226562 116.917969 C 219.367188 116.332031 219.5 115.746094 219.625 115.152344 C 219.710938 114.753906 219.796875 114.347656 219.875 113.949219 C 219.992188 113.355469 220.109375 112.753906 220.21875 112.152344 C 220.289062 111.761719 220.359375 111.363281 220.429688 110.972656 C 220.539062 110.335938 220.632812 109.703125 220.726562 109.0625 C 220.78125 108.703125 220.835938 108.351562 220.882812 107.992188 C 220.992188 107.210938 221.085938 106.421875 221.171875 105.632812 C 221.195312 105.421875 221.226562 105.210938 221.25 104.992188 C 221.351562 104.03125 221.4375 103.0625 221.507812 102.101562 C 221.601562 102.179688 221.695312 102.25 221.789062 102.320312 C 222.117188 102.585938 222.4375 102.859375 222.765625 103.132812 C 223.179688 103.484375 223.601562 103.828125 224.007812 104.1875 C 224.335938 104.46875 224.65625 104.757812 224.976562 105.046875 C 225.375 105.398438 225.765625 105.757812 226.15625 106.117188 C 226.476562 106.414062 226.796875 106.71875 227.109375 107.023438 C 227.484375 107.382812 227.859375 107.742188 228.226562 108.109375 C 228.539062 108.421875 228.851562 108.734375 229.15625 109.054688 C 229.515625 109.421875 229.867188 109.789062 230.21875 110.164062 C 230.523438 110.492188 230.828125 110.808594 231.125 111.144531 C 231.46875 111.519531 231.804688 111.902344 232.140625 112.285156 C 232.4375 112.621094 232.726562 112.957031 233.015625 113.292969 C 233.34375 113.683594 233.664062 114.066406 233.984375 114.464844 C 234.265625 114.808594 234.546875 115.152344 234.820312 115.503906 C 235.132812 115.902344 235.445312 116.300781 235.75 116.707031 C 236.015625 117.058594 236.289062 117.410156 236.546875 117.769531 C 236.84375 118.175781 237.140625 118.589844 237.429688 119.003906 C 237.6875 119.363281 237.9375 119.722656 238.1875 120.089844 C 238.476562 120.511719 238.75 120.929688 239.03125 121.351562 C 239.273438 121.71875 239.515625 122.085938 239.75 122.453125 C 240.023438 122.882812 240.289062 123.320312 240.554688 123.757812 C 240.78125 124.132812 241.007812 124.5 241.226562 124.875 C 241.484375 125.320312 241.742188 125.773438 241.992188 126.226562 C 242.203125 126.601562 242.414062 126.96875 242.617188 127.34375 C 242.867188 127.8125 243.109375 128.28125 243.351562 128.75 C 243.539062 129.117188 243.734375 129.484375 243.921875 129.859375 C 244.171875 130.359375 244.40625 130.867188 244.640625 131.371094 C 244.804688 131.722656 244.976562 132.066406 245.132812 132.417969 C 245.390625 132.988281 245.632812 133.558594 245.875 134.128906 C 246 134.425781 246.132812 134.714844 246.257812 135.019531 C 246.617188 135.894531 246.960938 136.777344 247.28125 137.660156 C 260.316406 173.097656 246.054688 213.476562 213.375 233.679688 L 74.863281 319.230469 C 74.816406 319.261719 74.769531 319.285156 74.730469 319.316406 C 73.597656 320.050781 72.457031 320.761719 71.300781 321.449219 C 70.925781 321.667969 70.550781 321.878906 70.175781 322.097656 C 69.386719 322.550781 68.605469 323.003906 67.808594 323.433594 C 67.355469 323.675781 66.902344 323.910156 66.449219 324.152344 C 65.722656 324.535156 64.988281 324.910156 64.253906 325.269531 C 63.769531 325.511719 63.277344 325.738281 62.785156 325.972656 C 62.066406 326.308594 61.347656 326.636719 60.621094 326.957031 C 60.121094 327.175781 59.613281 327.394531 59.105469 327.613281 C 58.378906 327.914062 57.644531 328.210938 56.914062 328.5 C 56.40625 328.695312 55.90625 328.898438 55.398438 329.085938 C 54.640625 329.367188 53.875 329.640625 53.101562 329.898438 C 52.617188 330.0625 52.132812 330.234375 51.648438 330.398438 C 50.796875 330.679688 49.9375 330.9375 49.078125 331.1875 C 48.671875 331.304688 48.273438 331.4375 47.867188 331.546875 C 47.789062 331.570312 47.703125 331.585938 47.625 331.609375 C 35.085938 318.628906 27.46875 301.957031 25.523438 283.160156 Z M 301.222656 256.027344 L 162.699219 341.636719 C 162.652344 341.667969 162.605469 341.691406 162.566406 341.722656 C 144.351562 353.585938 123.617188 358.925781 102.621094 357.148438 C 86.988281 355.828125 72.152344 350.515625 59.777344 341.933594 C 59.988281 341.855469 60.191406 341.769531 60.402344 341.691406 C 60.699219 341.582031 61.003906 341.464844 61.300781 341.347656 C 62.457031 340.902344 63.605469 340.441406 64.746094 339.957031 C 64.933594 339.878906 65.128906 339.800781 65.316406 339.714844 C 66.589844 339.167969 67.855469 338.582031 69.105469 337.992188 C 69.410156 337.84375 69.714844 337.695312 70.011719 337.546875 C 71.183594 336.976562 72.355469 336.382812 73.511719 335.765625 C 73.621094 335.710938 73.730469 335.648438 73.839844 335.59375 C 75.082031 334.929688 76.308594 334.226562 77.527344 333.515625 C 77.824219 333.34375 78.121094 333.164062 78.410156 332.992188 C 79.636719 332.257812 80.855469 331.507812 82.058594 330.726562 L 220.507812 245.148438 C 258.652344 221.574219 275.269531 174.371094 260.011719 132.910156 C 253.765625 115.933594 242.664062 101.03125 227.90625 89.824219 C 227.40625 89.445312 226.890625 89.0625 226.351562 88.6875 C 226.171875 88.554688 225.976562 88.429688 225.789062 88.296875 C 225.429688 88.046875 225.070312 87.789062 224.6875 87.53125 C 224.453125 87.375 224.203125 87.210938 223.96875 87.054688 C 223.617188 86.820312 223.273438 86.59375 222.914062 86.359375 C 222.648438 86.1875 222.367188 86.015625 222.09375 85.84375 C 221.796875 85.65625 221.507812 85.46875 221.195312 85.28125 C 221.179688 85.125 221.148438 84.976562 221.132812 84.828125 C 221 83.664062 220.84375 82.507812 220.671875 81.351562 C 220.617188 80.96875 220.554688 80.578125 220.492188 80.195312 C 220.3125 79.097656 220.109375 77.996094 219.890625 76.902344 C 219.84375 76.660156 219.796875 76.410156 219.75 76.167969 C 219.476562 74.863281 219.164062 73.558594 218.835938 72.261719 C 218.75 71.933594 218.65625 71.605469 218.570312 71.277344 C 218.296875 70.261719 218.007812 69.253906 217.703125 68.257812 C 217.640625 68.039062 217.585938 67.820312 217.515625 67.601562 L 301.597656 119.035156 C 303.90625 120.449219 305.851562 121.757812 307.539062 123.039062 C 320.234375 132.675781 329.773438 145.460938 335.117188 160.003906 C 348.164062 195.441406 333.90625 235.824219 301.222656 256.027344 Z M 301.222656 256.027344 "/>
</g>
</g>
</svg>
