<?xml version="1.0" encoding="UTF-8"?>
<svg xmlns="http://www.w3.org/2000/svg" xmlns:xlink="http://www.w3.org/1999/xlink" width="375pt" height="374.999991pt" viewBox="0 0 375 374.999991" version="1.2">
<defs>
<clipPath id="clip1">
  <path d="M 10.910156 3 L 355 3 L 355 373 L 10.910156 373 Z M 10.910156 3 "/>
</clipPath>
</defs>
<g id="surface1">
<path style=" stroke:none;fill-rule:nonzero;fill:rgb(25.878906%,100%,71.759033%);fill-opacity:1;" d="M 342.164062 157.496094 C 336.597656 142.339844 326.695312 128.277344 312.167969 117.230469 C 310.070312 115.636719 307.871094 114.1875 305.625 112.8125 L 202.144531 49.449219 C 205.222656 54.460938 207.753906 59.6875 209.722656 65.0625 C 212.574219 72.824219 214.214844 80.765625 214.765625 88.695312 L 217.324219 90.257812 C 219.570312 91.632812 221.769531 93.085938 223.867188 94.671875 C 238.402344 105.71875 248.292969 119.78125 253.863281 134.9375 C 268.222656 174.011719 252.355469 217.804688 216.964844 239.699219 L 77.730469 325.839844 C 67.175781 332.714844 56.011719 337.398438 44.71875 340.070312 C 75.128906 368.832031 125.214844 374.984375 166.03125 348.382812 L 305.265625 262.257812 C 340.65625 240.359375 356.527344 196.566406 342.164062 157.496094 Z M 342.164062 157.496094 "/>
<path style=" stroke:none;fill-rule:nonzero;fill:rgb(25.878906%,100%,71.759033%);fill-opacity:1;" d="M 284.871094 103.574219 C 299.40625 114.621094 309.300781 128.683594 314.867188 143.839844 C 329.230469 182.910156 313.359375 226.703125 277.96875 248.601562 L 138.734375 334.734375 C 111.542969 352.460938 80.242188 355.625 53.378906 347.265625 C 84.058594 369.664062 128.882812 372.589844 166.023438 348.382812 L 305.265625 262.257812 C 340.65625 240.367188 356.527344 196.574219 342.164062 157.496094 C 336.597656 142.339844 326.695312 128.277344 312.167969 117.230469 C 310.070312 115.636719 307.871094 114.1875 305.625 112.8125 Z M 284.871094 103.574219 "/>
<path style=" stroke:none;fill-rule:nonzero;fill:rgb(14.898682%,100%,61.959839%);fill-opacity:1;" d="M 216.972656 239.707031 C 252.363281 217.820312 268.230469 174.027344 253.871094 134.945312 C 248.300781 119.792969 238.402344 105.726562 223.875 94.679688 C 221.777344 93.085938 219.578125 91.640625 217.332031 90.265625 L 214.773438 88.703125 C 216.996094 120.671875 201.195312 152.285156 172.832031 169.832031 L 33.582031 255.957031 C 28.425781 259.316406 23.117188 262.144531 17.722656 264.480469 L 17.722656 282.023438 C 17.722656 282.832031 17.675781 283.648438 17.753906 284.453125 C 20.132812 307.425781 30.175781 326.328125 44.710938 340.070312 C 56.003906 337.398438 67.175781 332.714844 77.722656 325.839844 Z M 216.972656 239.707031 "/>
<path style=" stroke:none;fill-rule:nonzero;fill:rgb(16.079712%,88.238525%,51.368713%);fill-opacity:1;" d="M 214.765625 88.695312 C 214.214844 80.765625 212.574219 72.824219 209.722656 65.0625 C 207.753906 59.6875 205.222656 54.460938 202.144531 49.449219 L 166.023438 27.339844 C 141.933594 11.644531 114.667969 7.355469 90.113281 12.382812 C 53.183594 19.933594 22.378906 48.578125 17.753906 91.269531 C 17.667969 92.074219 17.722656 145.890625 17.722656 146.707031 L 17.722656 264.472656 C 23.117188 262.136719 28.425781 259.308594 33.582031 255.949219 L 172.824219 169.816406 C 201.1875 152.277344 216.988281 120.671875 214.765625 88.695312 Z M 214.765625 88.695312 "/>
<g clip-path="url(#clip1)" clip-rule="nonzero">
<path style=" stroke:none;fill-rule:nonzero;fill:rgb(100%,100%,100%);fill-opacity:1;" d="M 348.570312 155.136719 C 342.296875 138.058594 331.132812 123.066406 316.296875 111.792969 C 314.230469 110.222656 311.90625 108.648438 309.191406 106.992188 L 205.703125 43.628906 L 169.667969 21.566406 C 145.207031 5.648438 116.472656 0.0078125 88.746094 5.6875 C 46.140625 14.410156 15.609375 47.714844 10.976562 90.53125 C 10.914062 91.105469 10.859375 91.640625 10.898438 145.539062 L 10.898438 282.015625 L 10.890625 282.566406 C 10.882812 283.273438 10.867188 284.160156 10.96875 285.152344 C 13.402344 308.640625 23.453125 329.351562 40.03125 345.027344 C 56.214844 360.339844 77.832031 369.839844 100.894531 371.785156 C 103.933594 372.046875 106.964844 372.171875 109.980469 372.171875 C 130.960938 372.171875 151.433594 366.019531 169.675781 354.148438 L 308.84375 268.0625 C 347.199219 244.34375 363.898438 196.847656 348.570312 155.136719 Z M 24.570312 91.75 C 28.652344 55.066406 54.886719 26.554688 91.488281 19.058594 C 115.703125 14.109375 140.855469 19.074219 162.308594 33.054688 C 162.363281 33.085938 162.417969 33.125 162.472656 33.15625 L 197.121094 54.367188 C 197.363281 54.777344 197.605469 55.191406 197.84375 55.609375 C 198.101562 56.066406 198.359375 56.519531 198.613281 56.984375 C 198.980469 57.675781 199.34375 58.375 199.6875 59.074219 C 199.90625 59.515625 200.136719 59.953125 200.347656 60.402344 C 200.714844 61.179688 201.070312 61.964844 201.414062 62.75 C 201.578125 63.128906 201.761719 63.503906 201.917969 63.882812 C 202.414062 65.054688 202.882812 66.230469 203.316406 67.417969 C 205.875 74.386719 207.4375 81.703125 207.957031 89.171875 C 210.054688 119.273438 195.210938 147.949219 169.234375 164.015625 L 29.996094 250.148438 C 29.949219 250.179688 29.898438 250.203125 29.859375 250.234375 C 28.808594 250.917969 27.742188 251.578125 26.65625 252.222656 C 26.335938 252.417969 26.003906 252.609375 25.683594 252.796875 C 25.304688 253.015625 24.921875 253.222656 24.542969 253.441406 L 24.542969 145.53125 C 24.511719 114.15625 24.519531 94.234375 24.570312 91.75 Z M 24.542969 283.746094 C 24.527344 283.5625 24.527344 283.148438 24.535156 282.785156 L 24.542969 268.863281 C 24.585938 268.847656 24.625 268.824219 24.664062 268.808594 C 24.875 268.707031 25.078125 268.597656 25.28125 268.496094 C 26.375 267.960938 27.449219 267.410156 28.527344 266.835938 C 28.925781 266.625 29.328125 266.40625 29.734375 266.183594 C 30.644531 265.691406 31.550781 265.179688 32.453125 264.652344 C 32.828125 264.433594 33.214844 264.210938 33.589844 263.992188 C 34.824219 263.253906 36.046875 262.507812 37.242188 261.722656 L 176.414062 175.628906 C 177.300781 175.078125 178.179688 174.511719 179.050781 173.929688 C 179.339844 173.742188 179.617188 173.546875 179.898438 173.351562 C 180.480469 172.957031 181.054688 172.5625 181.617188 172.15625 C 181.949219 171.921875 182.269531 171.683594 182.59375 171.449219 C 183.109375 171.070312 183.621094 170.695312 184.132812 170.308594 C 184.46875 170.058594 184.800781 169.800781 185.128906 169.539062 C 185.617188 169.15625 186.101562 168.769531 186.582031 168.382812 C 186.910156 168.117188 187.234375 167.851562 187.554688 167.582031 C 188.042969 167.183594 188.511719 166.773438 188.992188 166.359375 C 189.296875 166.089844 189.605469 165.832031 189.902344 165.5625 C 190.414062 165.109375 190.917969 164.644531 191.410156 164.179688 C 191.664062 163.945312 191.914062 163.71875 192.164062 163.488281 C 192.894531 162.789062 193.617188 162.089844 194.332031 161.375 C 194.449219 161.257812 194.558594 161.132812 194.675781 161.015625 C 195.265625 160.410156 195.855469 159.796875 196.429688 159.175781 C 196.6875 158.902344 196.929688 158.617188 197.183594 158.34375 C 197.605469 157.871094 198.039062 157.402344 198.453125 156.921875 C 198.730469 156.609375 199.003906 156.285156 199.277344 155.964844 C 199.664062 155.515625 200.039062 155.058594 200.417969 154.605469 C 200.691406 154.265625 200.96875 153.929688 201.234375 153.589844 C 201.597656 153.136719 201.957031 152.679688 202.308594 152.214844 C 202.570312 151.871094 202.835938 151.53125 203.085938 151.1875 C 203.441406 150.707031 203.792969 150.226562 204.140625 149.742188 C 204.382812 149.402344 204.617188 149.074219 204.855469 148.734375 C 205.230469 148.191406 205.59375 147.652344 205.953125 147.109375 C 206.148438 146.816406 206.347656 146.535156 206.535156 146.238281 C 207.070312 145.410156 207.59375 144.578125 208.105469 143.738281 C 208.238281 143.519531 208.363281 143.289062 208.5 143.0625 C 208.875 142.425781 209.253906 141.789062 209.613281 141.144531 C 209.800781 140.808594 209.988281 140.460938 210.179688 140.117188 C 210.46875 139.582031 210.757812 139.046875 211.042969 138.503906 C 211.238281 138.128906 211.425781 137.75 211.625 137.367188 C 211.882812 136.847656 212.140625 136.328125 212.394531 135.8125 C 212.582031 135.417969 212.769531 135.03125 212.949219 134.640625 C 213.195312 134.113281 213.4375 133.585938 213.671875 133.0625 C 213.847656 132.675781 214.019531 132.28125 214.183594 131.890625 C 214.417969 131.332031 214.648438 130.773438 214.875 130.21875 C 215.023438 129.847656 215.171875 129.476562 215.320312 129.109375 C 215.574219 128.464844 215.816406 127.8125 216.050781 127.167969 C 216.15625 126.878906 216.273438 126.59375 216.375 126.304688 C 216.703125 125.371094 217.019531 124.433594 217.324219 123.492188 C 217.402344 123.238281 217.480469 122.980469 217.558594 122.730469 C 217.78125 122.023438 217.992188 121.324219 218.195312 120.609375 C 218.296875 120.246094 218.390625 119.878906 218.496094 119.507812 C 218.660156 118.902344 218.824219 118.296875 218.972656 117.683594 C 219.074219 117.292969 219.160156 116.890625 219.257812 116.5 C 219.398438 115.910156 219.53125 115.320312 219.65625 114.722656 C 219.742188 114.324219 219.828125 113.914062 219.90625 113.511719 C 220.027344 112.917969 220.144531 112.3125 220.253906 111.707031 C 220.324219 111.3125 220.394531 110.914062 220.464844 110.519531 C 220.574219 109.875 220.667969 109.238281 220.765625 108.59375 C 220.820312 108.234375 220.875 107.878906 220.921875 107.519531 C 221.03125 106.734375 221.125 105.941406 221.210938 105.144531 C 221.234375 104.933594 221.265625 104.722656 221.289062 104.5 C 221.390625 103.535156 221.476562 102.5625 221.550781 101.59375 C 221.644531 101.671875 221.738281 101.746094 221.832031 101.816406 C 222.160156 102.082031 222.484375 102.355469 222.8125 102.632812 C 223.230469 102.984375 223.652344 103.332031 224.0625 103.691406 C 224.390625 103.976562 224.714844 104.265625 225.035156 104.558594 C 225.4375 104.910156 225.828125 105.273438 226.222656 105.632812 C 226.542969 105.933594 226.863281 106.238281 227.179688 106.542969 C 227.554688 106.90625 227.933594 107.265625 228.300781 107.636719 C 228.617188 107.949219 228.929688 108.265625 229.238281 108.585938 C 229.597656 108.957031 229.953125 109.324219 230.304688 109.703125 C 230.609375 110.03125 230.917969 110.355469 231.214844 110.691406 C 231.5625 111.070312 231.898438 111.453125 232.234375 111.839844 C 232.535156 112.179688 232.824219 112.515625 233.117188 112.855469 C 233.445312 113.246094 233.765625 113.632812 234.089844 114.03125 C 234.371094 114.378906 234.65625 114.722656 234.929688 115.078125 C 235.242188 115.476562 235.558594 115.878906 235.863281 116.285156 C 236.132812 116.640625 236.40625 116.992188 236.664062 117.355469 C 236.964844 117.765625 237.261719 118.179688 237.550781 118.597656 C 237.8125 118.957031 238.0625 119.320312 238.3125 119.6875 C 238.605469 120.113281 238.878906 120.539062 239.164062 120.960938 C 239.40625 121.332031 239.648438 121.699219 239.882812 122.070312 C 240.160156 122.5 240.425781 122.941406 240.695312 123.382812 C 240.921875 123.757812 241.148438 124.128906 241.367188 124.503906 C 241.628906 124.953125 241.886719 125.410156 242.136719 125.863281 C 242.351562 126.242188 242.5625 126.609375 242.765625 126.988281 C 243.019531 127.460938 243.261719 127.929688 243.503906 128.402344 C 243.691406 128.769531 243.890625 129.140625 244.078125 129.519531 C 244.328125 130.019531 244.566406 130.53125 244.800781 131.042969 C 244.964844 131.394531 245.136719 131.742188 245.296875 132.09375 C 245.554688 132.667969 245.796875 133.242188 246.042969 133.816406 C 246.167969 134.113281 246.300781 134.40625 246.425781 134.710938 C 246.785156 135.589844 247.132812 136.480469 247.453125 137.367188 C 260.558594 173.019531 246.222656 213.640625 213.375 233.964844 L 74.140625 320.035156 C 74.09375 320.066406 74.046875 320.089844 74.007812 320.121094 C 72.871094 320.859375 71.722656 321.574219 70.5625 322.265625 C 70.183594 322.484375 69.808594 322.699219 69.429688 322.917969 C 68.636719 323.375 67.851562 323.828125 67.050781 324.261719 C 66.59375 324.503906 66.140625 324.742188 65.683594 324.984375 C 64.953125 325.371094 64.214844 325.746094 63.476562 326.109375 C 62.992188 326.351562 62.496094 326.578125 62 326.816406 C 61.277344 327.152344 60.554688 327.484375 59.828125 327.804688 C 59.324219 328.023438 58.8125 328.246094 58.304688 328.464844 C 57.574219 328.769531 56.835938 329.070312 56.097656 329.359375 C 55.585938 329.558594 55.082031 329.761719 54.574219 329.949219 C 53.8125 330.234375 53.042969 330.507812 52.265625 330.765625 C 51.777344 330.933594 51.289062 331.105469 50.804688 331.269531 C 49.949219 331.550781 49.085938 331.8125 48.21875 332.0625 C 47.8125 332.179688 47.410156 332.316406 47.003906 332.425781 C 46.925781 332.449219 46.839844 332.464844 46.757812 332.488281 C 34.15625 319.429688 26.5 302.65625 24.542969 283.746094 Z M 301.675781 256.449219 L 162.433594 342.574219 C 162.386719 342.605469 162.339844 342.628906 162.300781 342.660156 C 143.988281 354.597656 123.148438 359.96875 102.042969 358.179688 C 86.328125 356.851562 71.417969 351.507812 58.976562 342.875 C 59.191406 342.796875 59.394531 342.710938 59.605469 342.628906 C 59.90625 342.519531 60.210938 342.402344 60.507812 342.285156 C 61.671875 341.835938 62.824219 341.375 63.972656 340.886719 C 64.160156 340.808594 64.355469 340.730469 64.546875 340.644531 C 65.824219 340.09375 67.097656 339.503906 68.355469 338.90625 C 68.660156 338.757812 68.964844 338.609375 69.265625 338.457031 C 70.441406 337.886719 71.621094 337.289062 72.78125 336.667969 C 72.894531 336.613281 73.003906 336.550781 73.113281 336.496094 C 74.359375 335.828125 75.59375 335.121094 76.820312 334.40625 C 77.117188 334.230469 77.414062 334.050781 77.707031 333.878906 C 78.9375 333.140625 80.164062 332.386719 81.375 331.601562 L 220.542969 245.507812 C 258.886719 221.785156 275.589844 174.300781 260.253906 132.589844 C 253.972656 115.507812 242.8125 100.519531 227.980469 89.246094 C 227.476562 88.859375 226.960938 88.472656 226.417969 88.097656 C 226.238281 87.964844 226.039062 87.835938 225.851562 87.703125 C 225.492188 87.453125 225.128906 87.195312 224.746094 86.933594 C 224.507812 86.777344 224.257812 86.613281 224.023438 86.453125 C 223.667969 86.21875 223.324219 85.992188 222.960938 85.753906 C 222.695312 85.582031 222.414062 85.410156 222.136719 85.238281 C 221.839844 85.046875 221.550781 84.859375 221.234375 84.671875 C 221.21875 84.515625 221.1875 84.363281 221.171875 84.214844 C 221.039062 83.046875 220.882812 81.882812 220.707031 80.71875 C 220.652344 80.335938 220.589844 79.941406 220.527344 79.558594 C 220.347656 78.449219 220.144531 77.339844 219.921875 76.242188 C 219.875 75.996094 219.828125 75.746094 219.78125 75.503906 C 219.507812 74.191406 219.191406 72.878906 218.863281 71.574219 C 218.777344 71.246094 218.683594 70.914062 218.597656 70.585938 C 218.320312 69.5625 218.03125 68.550781 217.726562 67.542969 C 217.660156 67.324219 217.605469 67.105469 217.535156 66.882812 L 302.054688 118.628906 C 304.378906 120.050781 306.332031 121.371094 308.027344 122.660156 C 320.789062 132.355469 330.378906 145.214844 335.75 159.84375 C 348.863281 195.5 334.53125 236.125 301.675781 256.449219 Z M 301.675781 256.449219 "/>
</g>
</g>
</svg>
