<?xml version="1.0" encoding="UTF-8"?>
<svg xmlns="http://www.w3.org/2000/svg" xmlns:xlink="http://www.w3.org/1999/xlink" width="375pt" height="374.999991pt" viewBox="0 0 375 374.999991" version="1.2">
<defs>
<clipPath id="clip1">
  <path d="M 10.910156 3 L 355 3 L 355 373 L 10.910156 373 Z M 10.910156 3 "/>
</clipPath>
</defs>
<g id="surface1">
<path style=" stroke:none;fill-rule:nonzero;fill:rgb(57.649231%,89.408875%,58.039856%);fill-opacity:1;" d="M 342.554688 157.496094 C 336.980469 142.339844 327.066406 128.277344 312.523438 117.230469 C 310.425781 115.636719 308.222656 114.1875 305.972656 112.8125 L 202.371094 49.449219 C 205.453125 54.460938 207.984375 59.6875 209.957031 65.0625 C 212.8125 72.824219 214.453125 80.765625 215.003906 88.695312 L 217.566406 90.257812 C 219.816406 91.632812 222.015625 93.085938 224.117188 94.671875 C 238.667969 105.71875 248.574219 119.78125 254.148438 134.9375 C 268.527344 174.011719 252.640625 217.804688 217.207031 239.699219 L 77.804688 325.839844 C 67.238281 332.714844 56.058594 337.398438 44.753906 340.070312 C 75.203125 368.832031 125.347656 374.984375 166.214844 348.382812 L 305.613281 262.257812 C 341.046875 240.359375 356.933594 196.566406 342.554688 157.496094 Z M 342.554688 157.496094 "/>
<path style=" stroke:none;fill-rule:nonzero;fill:rgb(49.409485%,76.078796%,49.798584%);fill-opacity:1;" d="M 285.195312 103.574219 C 299.746094 114.621094 309.652344 128.683594 315.226562 143.839844 C 329.605469 182.910156 313.71875 226.703125 278.285156 248.601562 L 138.886719 334.734375 C 111.660156 352.460938 80.320312 355.625 53.425781 347.265625 C 84.144531 369.664062 129.019531 372.589844 166.207031 348.382812 L 305.613281 262.257812 C 341.046875 240.367188 356.933594 196.574219 342.554688 157.496094 C 336.980469 142.339844 327.066406 128.277344 312.523438 117.230469 C 310.425781 115.636719 308.222656 114.1875 305.972656 112.8125 Z M 285.195312 103.574219 "/>
<path style=" stroke:none;fill-rule:nonzero;fill:rgb(90.19928%,16.859436%,29.019165%);fill-opacity:1;" d="M 217.214844 239.707031 C 252.648438 217.820312 268.535156 174.027344 254.15625 134.945312 C 248.582031 119.792969 238.667969 105.726562 224.125 94.679688 C 222.023438 93.085938 219.824219 91.640625 217.574219 90.265625 L 215.011719 88.703125 C 217.238281 120.671875 201.417969 152.285156 173.023438 169.832031 L 33.605469 255.957031 C 28.441406 259.316406 23.125 262.144531 17.726562 264.480469 L 17.726562 282.023438 C 17.726562 282.832031 17.679688 283.648438 17.757812 284.453125 C 20.140625 307.425781 30.195312 326.328125 44.746094 340.070312 C 56.050781 337.398438 67.238281 332.714844 77.796875 325.839844 Z M 217.214844 239.707031 "/>
<path style=" stroke:none;fill-rule:nonzero;fill:rgb(70.979309%,88.238525%,97.648621%);fill-opacity:1;" d="M 215.003906 88.695312 C 214.453125 80.765625 212.8125 72.824219 209.957031 65.0625 C 207.984375 59.6875 205.453125 54.460938 202.371094 49.449219 L 166.207031 27.339844 C 142.085938 11.644531 114.789062 7.355469 90.203125 12.382812 C 53.230469 19.933594 22.386719 48.578125 17.757812 91.269531 C 17.671875 92.074219 17.726562 145.890625 17.726562 146.707031 L 17.726562 264.472656 C 23.125 262.136719 28.441406 259.308594 33.605469 255.949219 L 173.011719 169.816406 C 201.410156 152.277344 217.230469 120.671875 215.003906 88.695312 Z M 215.003906 88.695312 "/>
<g clip-path="url(#clip1)" clip-rule="nonzero">
<path style=" stroke:none;fill-rule:nonzero;fill:rgb(50.19989%,49.409485%,77.648926%);fill-opacity:1;" d="M 348.972656 155.136719 C 342.6875 138.058594 331.507812 123.066406 316.660156 111.792969 C 314.589844 110.222656 312.261719 108.648438 309.542969 106.992188 L 205.929688 43.628906 L 169.851562 21.566406 C 145.363281 5.648438 116.597656 0.0078125 88.835938 5.6875 C 46.175781 14.410156 15.609375 47.714844 10.972656 90.53125 C 10.910156 91.105469 10.855469 91.640625 10.894531 145.539062 L 10.894531 282.015625 L 10.886719 282.566406 C 10.878906 283.273438 10.863281 284.160156 10.964844 285.152344 C 13.402344 308.640625 23.464844 329.351562 40.0625 345.027344 C 56.265625 360.339844 77.910156 369.839844 101 371.785156 C 104.042969 372.046875 107.074219 372.171875 110.09375 372.171875 C 131.101562 372.171875 151.597656 366.019531 169.859375 354.148438 L 309.199219 268.0625 C 347.59375 244.34375 364.316406 196.847656 348.972656 155.136719 Z M 24.582031 91.75 C 28.667969 55.066406 54.9375 26.554688 91.582031 19.058594 C 115.828125 14.109375 141.007812 19.074219 162.488281 33.054688 C 162.542969 33.085938 162.597656 33.125 162.652344 33.15625 L 197.339844 54.367188 C 197.582031 54.777344 197.824219 55.191406 198.0625 55.609375 C 198.320312 56.066406 198.582031 56.519531 198.832031 56.984375 C 199.203125 57.675781 199.5625 58.375 199.910156 59.074219 C 200.128906 59.515625 200.355469 59.953125 200.570312 60.402344 C 200.9375 61.179688 201.292969 61.964844 201.640625 62.75 C 201.804688 63.128906 201.984375 63.503906 202.140625 63.882812 C 202.636719 65.054688 203.109375 66.230469 203.542969 67.417969 C 206.105469 74.386719 207.667969 81.703125 208.1875 89.171875 C 210.285156 119.273438 195.429688 147.949219 169.421875 164.015625 L 30.011719 250.148438 C 29.964844 250.179688 29.917969 250.203125 29.878906 250.234375 C 28.828125 250.917969 27.757812 251.578125 26.671875 252.222656 C 26.351562 252.417969 26.019531 252.609375 25.699219 252.796875 C 25.320312 253.015625 24.933594 253.222656 24.558594 253.441406 L 24.558594 145.53125 C 24.527344 114.15625 24.535156 94.234375 24.582031 91.75 Z M 24.558594 283.746094 C 24.542969 283.5625 24.542969 283.148438 24.550781 282.785156 L 24.558594 268.863281 C 24.597656 268.847656 24.636719 268.824219 24.675781 268.808594 C 24.886719 268.707031 25.09375 268.597656 25.296875 268.496094 C 26.390625 267.960938 27.464844 267.410156 28.542969 266.835938 C 28.945312 266.625 29.34375 266.40625 29.753906 266.183594 C 30.667969 265.691406 31.570312 265.179688 32.472656 264.652344 C 32.851562 264.433594 33.238281 264.210938 33.613281 263.992188 C 34.847656 263.253906 36.074219 262.507812 37.269531 261.722656 L 176.605469 175.628906 C 177.496094 175.078125 178.375 174.511719 179.25 173.929688 C 179.539062 173.742188 179.8125 173.546875 180.097656 173.351562 C 180.679688 172.957031 181.253906 172.5625 181.820312 172.15625 C 182.148438 171.921875 182.472656 171.683594 182.792969 171.449219 C 183.3125 171.070312 183.824219 170.695312 184.335938 170.308594 C 184.671875 170.058594 185.003906 169.800781 185.332031 169.539062 C 185.820312 169.15625 186.308594 168.769531 186.789062 168.382812 C 187.117188 168.117188 187.441406 167.851562 187.761719 167.582031 C 188.25 167.183594 188.722656 166.773438 189.203125 166.359375 C 189.507812 166.089844 189.816406 165.832031 190.113281 165.5625 C 190.625 165.109375 191.128906 164.644531 191.621094 164.179688 C 191.875 163.945312 192.125 163.71875 192.378906 163.488281 C 193.109375 162.789062 193.832031 162.089844 194.546875 161.375 C 194.664062 161.257812 194.777344 161.132812 194.894531 161.015625 C 195.484375 160.410156 196.074219 159.796875 196.648438 159.175781 C 196.90625 158.902344 197.148438 158.617188 197.402344 158.34375 C 197.824219 157.871094 198.257812 157.402344 198.675781 156.921875 C 198.949219 156.609375 199.226562 156.285156 199.5 155.964844 C 199.886719 155.515625 200.261719 155.058594 200.640625 154.605469 C 200.914062 154.265625 201.191406 153.929688 201.457031 153.589844 C 201.820312 153.136719 202.179688 152.679688 202.535156 152.214844 C 202.792969 151.871094 203.0625 151.53125 203.3125 151.1875 C 203.667969 150.707031 204.019531 150.226562 204.367188 149.742188 C 204.609375 149.402344 204.847656 149.074219 205.082031 148.734375 C 205.460938 148.191406 205.820312 147.652344 206.183594 147.109375 C 206.378906 146.816406 206.574219 146.535156 206.765625 146.238281 C 207.300781 145.410156 207.828125 144.578125 208.335938 143.738281 C 208.472656 143.519531 208.597656 143.289062 208.730469 143.0625 C 209.109375 142.425781 209.484375 141.789062 209.847656 141.144531 C 210.035156 140.808594 210.222656 140.460938 210.414062 140.117188 C 210.703125 139.582031 210.996094 139.046875 211.277344 138.503906 C 211.472656 138.128906 211.664062 137.75 211.859375 137.367188 C 212.117188 136.847656 212.378906 136.328125 212.628906 135.8125 C 212.820312 135.417969 213.007812 135.03125 213.1875 134.640625 C 213.433594 134.113281 213.675781 133.585938 213.910156 133.0625 C 214.085938 132.675781 214.257812 132.28125 214.421875 131.890625 C 214.65625 131.332031 214.886719 130.773438 215.113281 130.21875 C 215.261719 129.847656 215.414062 129.476562 215.5625 129.109375 C 215.8125 128.464844 216.058594 127.8125 216.292969 127.167969 C 216.394531 126.878906 216.511719 126.59375 216.617188 126.304688 C 216.945312 125.371094 217.261719 124.433594 217.566406 123.492188 C 217.644531 123.238281 217.722656 122.980469 217.804688 122.730469 C 218.023438 122.023438 218.234375 121.324219 218.441406 120.609375 C 218.542969 120.246094 218.636719 119.878906 218.738281 119.507812 C 218.902344 118.902344 219.070312 118.296875 219.21875 117.683594 C 219.320312 117.292969 219.40625 116.890625 219.5 116.5 C 219.644531 115.910156 219.777344 115.320312 219.902344 114.722656 C 219.988281 114.324219 220.074219 113.914062 220.152344 113.511719 C 220.273438 112.917969 220.390625 112.3125 220.5 111.707031 C 220.570312 111.3125 220.640625 110.914062 220.710938 110.519531 C 220.820312 109.875 220.917969 109.238281 221.011719 108.59375 C 221.066406 108.234375 221.121094 107.878906 221.167969 107.519531 C 221.277344 106.734375 221.371094 105.941406 221.457031 105.144531 C 221.480469 104.933594 221.515625 104.722656 221.539062 104.5 C 221.640625 103.535156 221.726562 102.5625 221.796875 101.59375 C 221.890625 101.671875 221.984375 101.746094 222.078125 101.816406 C 222.410156 102.082031 222.730469 102.355469 223.0625 102.632812 C 223.480469 102.984375 223.902344 103.332031 224.3125 103.691406 C 224.644531 103.976562 224.964844 104.265625 225.289062 104.558594 C 225.6875 104.910156 226.082031 105.273438 226.472656 105.632812 C 226.796875 105.933594 227.121094 106.238281 227.433594 106.542969 C 227.8125 106.90625 228.1875 107.265625 228.558594 107.636719 C 228.871094 107.949219 229.1875 108.265625 229.492188 108.585938 C 229.855469 108.957031 230.210938 109.324219 230.5625 109.703125 C 230.871094 110.03125 231.175781 110.355469 231.476562 110.691406 C 231.820312 111.070312 232.160156 111.453125 232.496094 111.839844 C 232.796875 112.179688 233.085938 112.515625 233.378906 112.855469 C 233.707031 113.246094 234.03125 113.632812 234.351562 114.03125 C 234.636719 114.378906 234.917969 114.722656 235.195312 115.078125 C 235.507812 115.476562 235.824219 115.878906 236.128906 116.285156 C 236.394531 116.640625 236.671875 116.992188 236.929688 117.355469 C 237.230469 117.765625 237.527344 118.179688 237.820312 118.597656 C 238.078125 118.957031 238.332031 119.320312 238.582031 119.6875 C 238.871094 120.113281 239.148438 120.539062 239.429688 120.960938 C 239.675781 121.332031 239.917969 121.699219 240.152344 122.070312 C 240.429688 122.5 240.695312 122.941406 240.964844 123.382812 C 241.191406 123.757812 241.421875 124.128906 241.640625 124.503906 C 241.898438 124.953125 242.160156 125.410156 242.410156 125.863281 C 242.621094 126.242188 242.835938 126.609375 243.039062 126.988281 C 243.292969 127.460938 243.535156 127.929688 243.777344 128.402344 C 243.96875 128.769531 244.164062 129.140625 244.351562 129.519531 C 244.605469 130.019531 244.839844 130.53125 245.074219 131.042969 C 245.242188 131.394531 245.414062 131.742188 245.570312 132.09375 C 245.832031 132.667969 246.074219 133.242188 246.316406 133.816406 C 246.445312 134.113281 246.578125 134.40625 246.703125 134.710938 C 247.066406 135.589844 247.410156 136.480469 247.734375 137.367188 C 260.855469 173.019531 246.5 213.640625 213.613281 233.964844 L 74.214844 320.035156 C 74.164062 320.066406 74.117188 320.089844 74.078125 320.121094 C 72.941406 320.859375 71.792969 321.574219 70.628906 322.265625 C 70.25 322.484375 69.875 322.699219 69.496094 322.917969 C 68.703125 323.375 67.914062 323.828125 67.113281 324.261719 C 66.65625 324.503906 66.203125 324.742188 65.746094 324.984375 C 65.015625 325.371094 64.277344 325.746094 63.535156 326.109375 C 63.050781 326.351562 62.554688 326.578125 62.058594 326.816406 C 61.335938 327.152344 60.613281 327.484375 59.882812 327.804688 C 59.378906 328.023438 58.867188 328.246094 58.355469 328.464844 C 57.625 328.769531 56.886719 329.070312 56.148438 329.359375 C 55.636719 329.558594 55.132812 329.761719 54.621094 329.949219 C 53.859375 330.234375 53.089844 330.507812 52.308594 330.765625 C 51.824219 330.933594 51.335938 331.105469 50.847656 331.269531 C 49.992188 331.550781 49.125 331.8125 48.261719 332.0625 C 47.851562 332.179688 47.453125 332.316406 47.042969 332.425781 C 46.964844 332.449219 46.878906 332.464844 46.796875 332.488281 C 34.179688 319.429688 26.515625 302.65625 24.558594 283.746094 Z M 302.019531 256.449219 L 162.613281 342.574219 C 162.566406 342.605469 162.519531 342.628906 162.480469 342.660156 C 144.144531 354.597656 123.277344 359.96875 102.148438 358.179688 C 86.414062 356.851562 71.484375 351.507812 59.03125 342.875 C 59.242188 342.796875 59.449219 342.710938 59.660156 342.628906 C 59.960938 342.519531 60.265625 342.402344 60.566406 342.285156 C 61.726562 341.835938 62.882812 341.375 64.03125 340.886719 C 64.21875 340.808594 64.417969 340.730469 64.605469 340.644531 C 65.886719 340.09375 67.160156 339.503906 68.417969 338.90625 C 68.726562 338.757812 69.03125 338.609375 69.332031 338.457031 C 70.511719 337.886719 71.691406 337.289062 72.851562 336.667969 C 72.964844 336.613281 73.074219 336.550781 73.183594 336.496094 C 74.433594 335.828125 75.667969 335.121094 76.894531 334.40625 C 77.191406 334.230469 77.492188 334.050781 77.78125 333.878906 C 79.015625 333.140625 80.242188 332.386719 81.453125 331.601562 L 220.789062 245.507812 C 259.179688 221.785156 275.902344 174.300781 260.546875 132.589844 C 254.257812 115.507812 243.085938 100.519531 228.234375 89.246094 C 227.734375 88.859375 227.214844 88.472656 226.671875 88.097656 C 226.492188 87.964844 226.292969 87.835938 226.105469 87.703125 C 225.742188 87.453125 225.382812 87.195312 224.996094 86.933594 C 224.761719 86.777344 224.507812 86.613281 224.273438 86.453125 C 223.917969 86.21875 223.574219 85.992188 223.210938 85.753906 C 222.945312 85.582031 222.660156 85.410156 222.386719 85.238281 C 222.085938 85.046875 221.796875 84.859375 221.480469 84.671875 C 221.464844 84.515625 221.433594 84.363281 221.417969 84.214844 C 221.285156 83.046875 221.128906 81.882812 220.957031 80.71875 C 220.902344 80.335938 220.835938 79.941406 220.773438 79.558594 C 220.59375 78.449219 220.390625 77.339844 220.167969 76.242188 C 220.121094 75.996094 220.074219 75.746094 220.027344 75.503906 C 219.753906 74.191406 219.4375 72.878906 219.109375 71.574219 C 219.023438 71.246094 218.925781 70.914062 218.839844 70.585938 C 218.566406 69.5625 218.273438 68.550781 217.96875 67.542969 C 217.90625 67.324219 217.851562 67.105469 217.78125 66.882812 L 302.398438 118.628906 C 304.722656 120.050781 306.683594 121.371094 308.378906 122.660156 C 321.15625 132.355469 330.753906 145.214844 336.132812 159.84375 C 349.261719 195.5 334.914062 236.125 302.019531 256.449219 Z M 302.019531 256.449219 "/>
</g>
</g>
</svg>
