<?xml version="1.0" encoding="UTF-8" standalone="no"?>
<!-- Created with Inkscape (http://www.inkscape.org/) -->

<svg
   width="210mm"
   height="297mm"
   viewBox="0 0 210 297"
   version="1.1"
   id="svg5"
   inkscape:version="1.1 (c68e22c387, 2021-05-23)"
   sodipodi:docname="confetti.svg"
   xmlns:inkscape="http://www.inkscape.org/namespaces/inkscape"
   xmlns:sodipodi="http://sodipodi.sourceforge.net/DTD/sodipodi-0.dtd"
   xmlns="http://www.w3.org/2000/svg"
   xmlns:svg="http://www.w3.org/2000/svg">
  <sodipodi:namedview
     id="namedview7"
     pagecolor="#505050"
     bordercolor="#eeeeee"
     borderopacity="1"
     inkscape:pageshadow="0"
     inkscape:pageopacity="0"
     inkscape:pagecheckerboard="0"
     inkscape:document-units="mm"
     showgrid="false"
     inkscape:zoom="0.70710678"
     inkscape:cx="423.17032"
     inkscape:cy="599.04247"
     inkscape:window-width="2560"
     inkscape:window-height="1387"
     inkscape:window-x="1912"
     inkscape:window-y="-8"
     inkscape:window-maximized="1"
     inkscape:current-layer="g135601" />
  <defs
     id="defs2">
    <inkscape:path-effect
       effect="bspline"
       id="path-effect125776"
       is_visible="true"
       lpeversion="1"
       weight="33.333333"
       steps="2"
       helper_size="0"
       apply_no_weight="true"
       apply_with_weight="true"
       only_selected="false" />
    <inkscape:path-effect
       effect="bspline"
       id="path-effect120391"
       is_visible="true"
       lpeversion="1"
       weight="33.333333"
       steps="2"
       helper_size="0"
       apply_no_weight="true"
       apply_with_weight="true"
       only_selected="false" />
    <linearGradient
       id="linearGradient120202"
       inkscape:swatch="solid">
      <stop
         style="stop-color:#f94342;stop-opacity:1;"
         offset="0"
         id="stop120200" />
    </linearGradient>
    <inkscape:path-effect
       effect="bspline"
       id="path-effect117076"
       is_visible="true"
       lpeversion="1"
       weight="33.333333"
       steps="2"
       helper_size="0"
       apply_no_weight="true"
       apply_with_weight="true"
       only_selected="false" />
    <inkscape:path-effect
       effect="bspline"
       id="path-effect42101"
       is_visible="true"
       lpeversion="1"
       weight="33.333333"
       steps="2"
       helper_size="0"
       apply_no_weight="true"
       apply_with_weight="true"
       only_selected="false" />
    <inkscape:path-effect
       effect="bspline"
       id="path-effect3394"
       is_visible="true"
       lpeversion="1"
       weight="33.333333"
       steps="2"
       helper_size="0"
       apply_no_weight="true"
       apply_with_weight="true"
       only_selected="false" />
    <inkscape:path-effect
       effect="bspline"
       id="path-effect3390"
       is_visible="true"
       lpeversion="1"
       weight="33.333333"
       steps="2"
       helper_size="0"
       apply_no_weight="true"
       apply_with_weight="true"
       only_selected="false" />
    <inkscape:path-effect
       effect="bspline"
       id="path-effect3386"
       is_visible="true"
       lpeversion="1"
       weight="33.333333"
       steps="2"
       helper_size="0"
       apply_no_weight="true"
       apply_with_weight="true"
       only_selected="false" />
    <inkscape:path-effect
       effect="bspline"
       id="path-effect3382"
       is_visible="true"
       lpeversion="1"
       weight="33.333333"
       steps="2"
       helper_size="0"
       apply_no_weight="true"
       apply_with_weight="true"
       only_selected="false" />
    <inkscape:path-effect
       effect="bspline"
       id="path-effect3378"
       is_visible="true"
       lpeversion="1"
       weight="33.333333"
       steps="2"
       helper_size="0"
       apply_no_weight="true"
       apply_with_weight="true"
       only_selected="false" />
    <inkscape:path-effect
       effect="bspline"
       id="path-effect3261"
       is_visible="true"
       lpeversion="1"
       weight="33.333333"
       steps="2"
       helper_size="0"
       apply_no_weight="true"
       apply_with_weight="true"
       only_selected="false" />
    <inkscape:path-effect
       effect="bspline"
       id="path-effect3257"
       is_visible="true"
       lpeversion="1"
       weight="33.333333"
       steps="2"
       helper_size="0"
       apply_no_weight="true"
       apply_with_weight="true"
       only_selected="false" />
    <inkscape:path-effect
       effect="bspline"
       id="path-effect3253"
       is_visible="true"
       lpeversion="1"
       weight="33.333333"
       steps="2"
       helper_size="0"
       apply_no_weight="true"
       apply_with_weight="true"
       only_selected="false" />
    <inkscape:path-effect
       effect="bspline"
       id="path-effect3249"
       is_visible="true"
       lpeversion="1"
       weight="33.333333"
       steps="2"
       helper_size="0"
       apply_no_weight="true"
       apply_with_weight="true"
       only_selected="false" />
    <inkscape:path-effect
       effect="bspline"
       id="path-effect3245"
       is_visible="true"
       lpeversion="1"
       weight="33.333333"
       steps="2"
       helper_size="0"
       apply_no_weight="true"
       apply_with_weight="true"
       only_selected="false" />
    <inkscape:path-effect
       effect="bspline"
       id="path-effect3241"
       is_visible="true"
       lpeversion="1"
       weight="33.333333"
       steps="2"
       helper_size="0"
       apply_no_weight="true"
       apply_with_weight="true"
       only_selected="false" />
    <inkscape:path-effect
       effect="bspline"
       id="path-effect3237"
       is_visible="true"
       lpeversion="1"
       weight="33.333333"
       steps="2"
       helper_size="0"
       apply_no_weight="true"
       apply_with_weight="true"
       only_selected="false" />
    <inkscape:path-effect
       effect="bspline"
       id="path-effect3233"
       is_visible="true"
       lpeversion="1"
       weight="33.333333"
       steps="2"
       helper_size="0"
       apply_no_weight="true"
       apply_with_weight="true"
       only_selected="false" />
    <inkscape:path-effect
       effect="bspline"
       id="path-effect3229"
       is_visible="true"
       lpeversion="1"
       weight="33.333333"
       steps="2"
       helper_size="0"
       apply_no_weight="true"
       apply_with_weight="true"
       only_selected="false" />
    <inkscape:path-effect
       effect="bspline"
       id="path-effect3225"
       is_visible="true"
       lpeversion="1"
       weight="33.333333"
       steps="2"
       helper_size="0"
       apply_no_weight="true"
       apply_with_weight="true"
       only_selected="false" />
    <inkscape:path-effect
       effect="bspline"
       id="path-effect3221"
       is_visible="true"
       lpeversion="1"
       weight="33.333333"
       steps="2"
       helper_size="0"
       apply_no_weight="true"
       apply_with_weight="true"
       only_selected="false" />
    <inkscape:path-effect
       effect="bspline"
       id="path-effect3213"
       is_visible="true"
       lpeversion="1"
       weight="33.333333"
       steps="2"
       helper_size="0"
       apply_no_weight="true"
       apply_with_weight="true"
       only_selected="false" />
  </defs>
  <g
     inkscape:label="Calque 1"
     inkscape:groupmode="layer"
     id="layer1">
    <g
       id="g120224"
       transform="translate(413.3173,-20.14046)" />
    <g
       id="g135601"
       transform="translate(26.236333,6.753921)">
      <path
         style="fill:#fccb60;stroke-width:0.365175"
         d="m -10.994924,235.70248 c -1.052613,-0.53128 -1.9258,-1.33784 -2.470955,-2.28235 -0.738794,-1.28002 -0.823584,-1.82452 -0.685442,-4.40174 l 0.157642,-2.94101 L 0.15503486,196.1526 C 7.9368269,179.69398 19.564449,155.13563 25.994195,141.57848 32.423942,128.02135 38.175859,115.861 38.776232,114.5555 c 0.882494,-1.91897 1.10037,-2.90373 1.137417,-5.14099 0.0398,-2.40297 0.175335,-2.93712 1.029444,-4.05683 1.74153,-2.28308 4.715065,-3.09185 7.338092,-1.99587 1.408939,0.58869 69.973115,69.163 70.631025,70.64146 1.17602,2.64279 -0.029,6.14271 -2.6385,7.66376 -1.20379,0.70167 -1.8205,0.81797 -3.59265,0.67754 -2.51207,-0.19906 1.23911,-1.86229 -41.681667,18.48112 -15.465182,7.33012 -30.665614,14.52227 -33.778736,15.98254 -3.113121,1.46029 -13.436617,6.33125 -22.941105,10.82437 -9.5044871,4.49313 -17.9674289,8.3278 -18.8065387,8.52149 -2.5440787,0.58726 -4.709205,0.43608 -6.4679373,-0.45161 z m 133.638564,-71.8202 c -1.30536,-1.30536 -1.36509,-2.5624 -0.18692,-3.93337 0.85484,-0.99468 1.0018,-1.02811 5.03554,-1.14541 4.75999,-0.13843 5.63335,0.22605 5.9976,2.5029 0.41763,2.61068 -1.51466,3.57117 -7.28576,3.62155 -2.28261,0.0199 -2.58311,-0.0684 -3.56046,-1.04567 z m -14.68423,-14.63956 c -2.17454,-1.71049 -1.22487,-4.84645 2.315,-7.64456 3.10109,-2.45128 5.31227,-3.11329 10.38885,-3.11038 4.72828,0.002 5.93237,0.25879 12.23339,2.60174 5.68525,2.11398 8.69166,1.72995 10.95889,-1.39987 0.59663,-0.82362 2.09644,-3.48808 3.33294,-5.92101 2.6758,-5.26497 3.87015,-7.116 6.11795,-9.4818 3.45968,-3.64126 6.8156,-4.98406 12.45622,-4.98406 3.97075,0 5.87101,0.51429 6.54356,1.77096 0.64391,1.20314 0.45322,2.5857 -0.48621,3.52512 -0.83782,0.83783 -1.08261,0.87711 -5.02116,0.80584 -3.87503,-0.0701 -4.27413,-0.01 -6.22715,0.94901 -2.96242,1.4536 -4.54633,3.47286 -8.01656,10.21988 -2.54187,4.94206 -3.4339,6.3129 -5.41664,8.32403 -2.76357,2.80314 -4.65924,3.62157 -8.37279,3.61487 -2.66482,-0.006 -4.57811,-0.45721 -9.11716,-2.15572 -3.92857,-1.47006 -5.73349,-1.86473 -8.74192,-1.91153 -3.95365,-0.0615 -5.39383,0.51498 -7.97742,3.1932 -2.47408,2.5647 -3.3779,2.85645 -4.96979,1.60428 z M 95.917569,127.24535 c -1.83058,-1.39009 -1.40441,-4.00386 0.83084,-5.09567 0.70069,-0.34224 2.50644,-1.20468 4.012791,-1.91653 5.21498,-2.4644 9.27108,-6.55512 10.95061,-11.04409 0.42421,-1.13378 1.02012,-3.96431 1.32426,-6.29006 1.00075,-7.652811 3.08543,-12.168141 7.50857,-16.2633 4.63613,-4.292343 10.78903,-6.589642 18.80893,-7.022658 l 4.08327,-0.220467 1.12048,1.120475 c 1.35307,1.353072 1.43464,2.596545 0.25996,3.962205 -0.82442,0.958445 -1.05256,1.011604 -5.43967,1.267516 -5.40426,0.315243 -9.60359,1.565353 -12.92264,3.846965 -4.48981,3.086442 -6.46824,6.960206 -7.43528,14.558264 -0.87765,6.89562 -2.81411,11.02202 -7.30029,15.55604 -5.39294,5.45049 -13.475521,9.30784 -15.801831,7.54131 z M 72.492555,114.52748 c -1.244984,-1.47957 -1.192881,-2.40467 0.201319,-3.5745 4.750604,-3.98609 5.253797,-5.06445 4.964554,-10.63932 -0.146538,-2.824397 -0.432781,-4.147884 -1.540107,-7.120927 -1.933115,-5.190203 -2.370854,-6.978071 -2.375776,-9.703392 -0.0066,-3.691586 0.817503,-5.604388 3.617292,-8.395314 2.045119,-2.038646 3.283702,-2.844257 8.301321,-5.399424 6.713831,-3.418942 8.779291,-5.034697 10.240961,-8.011244 0.94762,-1.929738 1.02474,-2.412057 1.02474,-6.409338 0,-4.102031 0.044,-4.358206 0.86209,-5.021163 0.96277,-0.780177 2.281781,-0.898389 3.392351,-0.304031 1.25666,0.672548 1.77095,2.572806 1.77095,6.543557 0,5.640617 -1.3428,8.996544 -4.984061,12.456211 -2.40825,2.288144 -4.22328,3.447359 -9.92488,6.338788 -5.543356,2.811181 -7.460797,4.397815 -8.074708,6.681614 -0.515522,1.917787 -0.270175,3.356784 1.291005,7.571981 2.130791,5.753157 2.52118,7.66281 2.500846,12.233382 -0.01538,3.45556 -0.163091,4.56519 -0.833863,6.26368 -1.643338,4.16118 -5.326388,7.61299 -8.122998,7.61299 -1.076636,0 -1.565697,-0.23777 -2.311036,-1.12355 z m 65.231045,-1.67482 c -1.60259,-0.78988 -2.69484,-2.40613 -2.90876,-4.30421 -0.64698,-5.73977 7.11934,-8.34491 10.13457,-3.39956 2.8107,4.60993 -2.34677,10.10855 -7.22581,7.70377 z m -39.970371,-7.9173 c -1.14915,-1.065 -1.50835,-2.14853 -1.22064,-3.68211 0.34217,-1.823954 1.76833,-2.94806 3.740221,-2.94806 1.39523,0 1.80497,0.180356 2.7094,1.192583 2.32763,2.605077 0.75266,6.293517 -2.68736,6.293517 -1.191051,0 -1.861781,-0.22588 -2.541621,-0.85593 z M 53.647859,90.502124 c -1.842661,-0.987848 -3.072908,-3.514655 -2.72212,-5.590953 0.345518,-2.045091 2.366213,-4.147555 4.342605,-4.518328 3.244676,-0.608706 6.420366,2.002281 6.417708,5.276501 -0.0034,4.229481 -4.321221,6.825451 -8.038193,4.83278 z m 46.781291,-7.732413 c -1.985101,-0.832917 -2.429561,-2.931635 -0.978431,-4.620104 0.850141,-0.989172 1.018641,-1.028818 4.873681,-1.146709 3.78499,-0.115739 4.04659,-0.07609 5.01953,0.760789 1.30257,1.120425 1.35206,2.933138 0.11288,4.135549 -0.72225,0.700822 -1.37248,0.849706 -4.49611,1.029471 -2.14877,0.123665 -4.01387,0.05822 -4.53157,-0.158996 z M 65.571555,74.518985 c -0.900887,-0.900888 -0.962734,-1.178898 -0.962734,-4.327614 0,-4.00242 0.44393,-5.498047 1.847336,-6.223775 1.443067,-0.74624 1.943497,-0.679766 3.267108,0.433981 l 1.15355,0.970649 -0.121291,4.174225 c -0.117821,4.054586 -0.150668,4.199462 -1.145895,5.054747 -1.351662,1.161596 -2.824238,1.131616 -4.038068,-0.08221 z m 13.04797,-15.021814 c -2.818202,-2.282832 -1.645582,-6.425273 1.95553,-6.908183 1.403951,-0.18827 1.65698,-0.09158 2.83011,1.081556 1.047323,1.047324 1.288311,1.563122 1.288311,2.757441 0,2.105993 -1.640971,3.719594 -3.77114,3.708243 -0.889223,-0.0047 -1.848306,-0.270896 -2.302811,-0.639057 z"
         id="path135615" />
      <path
         style="fill:#53c5e1;stroke-width:0.365175"
         d="m -10.99711,235.68321 c -2.819444,-1.49095 -3.866977,-4.71942 -2.896306,-8.92634 0.354506,-1.53644 48.076397,-102.7904 53.428545,-113.36205 0.537363,-1.06141 0.749048,-1.89122 0.558938,-2.19105 -0.512094,-0.80766 -0.353073,-3.58318 0.281974,-4.92144 1.267065,-2.67014 4.6311,-4.0328 7.565253,-3.06444 1.006708,0.33224 9.379577,8.51693 35.921798,35.11445 19.035018,19.07468 34.807118,35.12638 35.049118,35.67047 1.17916,2.65107 -0.0344,6.16541 -2.6385,7.64024 -1.82731,1.03494 -3.8637,1.05921 -5.90631,0.0704 -1.1371,-0.55047 -10.01076,-9.26435 -31.674187,-31.10392 l -30.094533,-30.33925 -1.755725,3.80706 c -0.965651,2.09388 -2.180538,4.65963 -2.699756,5.70167 l -0.944026,1.89463 27.859389,27.8576 c 15.322668,15.32168 27.740057,27.9613 27.594197,28.08803 -0.14586,0.12671 -8.72814,4.21999 -19.071741,9.09609 -10.343596,4.8761 -19.582018,9.25489 -20.529824,9.73061 -1.21452,0.60959 -1.664361,0.71139 -1.523695,0.34481 0.292454,-0.76211 -0.786895,-4.65574 -1.898968,-6.85032 -1.267805,-2.5019 -4.577869,-5.76263 -7.087432,-6.98182 -3.563058,-1.73098 -7.399768,-2.12685 -11.148918,-1.1503 -3.222411,0.83932 -5.195681,1.94052 -7.499701,4.18525 -6.313622,6.15117 -6.785034,16.21288 -1.051059,22.43351 l 1.428618,1.54988 -16.700638,7.88444 c -9.1853501,4.33645 -17.357954,8.05865 -18.1613401,8.27153 -2.3921667,0.63393 -4.6566152,0.47491 -6.4051709,-0.44975 z m 67.457004,-60.89699 c 3.785638,-1.43031 5.414151,-6.30639 3.307033,-9.9019 -1.230394,-2.09953 -3.405248,-3.32553 -5.899284,-3.32553 -3.945582,0 -6.787247,2.87217 -6.787247,6.8601 0,2.80907 1.454893,5.17607 3.834344,6.23816 1.32972,0.59353 4.142697,0.65907 5.545154,0.12918 z m -25.118573,-9.53914 c 2.053378,-2.05338 3.773655,-5.13601 4.423028,-7.92584 0.488976,-2.10075 0.307762,-7.54282 -0.27042,-8.12099 -0.286565,-0.28657 -9.607578,18.66693 -9.597305,19.51531 0.0075,0.6114 3.74724,-1.77102 5.444697,-3.46848 z m 91.302319,-1.3648 c -1.30536,-1.30536 -1.36509,-2.5624 -0.18692,-3.93337 0.85484,-0.99468 1.0018,-1.02811 5.03554,-1.14541 4.75999,-0.13843 5.63335,0.22605 5.9976,2.5029 0.41763,2.61068 -1.51466,3.57117 -7.28576,3.62155 -2.28261,0.0199 -2.58311,-0.0684 -3.56046,-1.04567 z m -14.87525,-15.01452 c -2.22784,-2.07555 0.66945,-6.72338 5.59136,-8.96965 4.85585,-2.21614 9.81627,-1.95538 18.49222,0.97207 3.01098,1.01597 6.00947,1.80383 6.86517,1.80383 3.24537,0 5.03904,-1.85549 8.69611,-8.99582 1.45398,-2.83883 3.37414,-6.15393 4.2671,-7.3669 3.85224,-5.23291 9.49759,-7.58455 16.42626,-6.84256 1.69645,0.18168 2.71234,0.50027 3.35325,1.05158 1.2002,1.03244 1.29503,2.90758 0.20232,4.00031 -0.7144,0.71439 -1.17901,0.78696 -5.1006,0.79677 -4.06893,0.01 -4.43744,0.0736 -6.47208,1.11281 -2.69668,1.37741 -4.18519,3.2731 -7.16342,9.1229 -3.16271,6.21216 -5.02726,8.89652 -7.401,10.65517 -3.98365,2.95137 -7.24479,2.96915 -15.6435,0.0853 -9.21246,-3.16329 -13.20324,-2.89297 -17.06818,1.15619 -2.29848,2.40802 -3.5921,2.77163 -5.04501,1.41804 z M 95.814729,126.80548 c -0.92693,-0.92693 -1.15138,-2.32687 -0.55248,-3.44593 0.18912,-0.35337 1.46267,-1.11131 2.83011,-1.68429 3.961651,-1.66003 6.277021,-3.08706 8.726471,-5.3784 4.01879,-3.75938 5.60973,-7.04989 6.34355,-13.12028 0.53648,-4.437867 1.2785,-7.274726 2.61921,-10.013714 3.01793,-6.165471 8.55519,-10.364839 16.37932,-12.421815 2.90542,-0.763844 8.68195,-1.289163 10.59547,-0.963557 1.36975,0.233073 1.74463,0.481681 2.25208,1.493435 0.47371,0.944512 0.52596,1.451409 0.23547,2.284706 -0.47844,1.372483 -1.2833,1.785823 -3.47735,1.785823 -5.3829,0 -11.87886,1.690304 -15.15291,3.942907 -0.87176,0.599786 -2.26572,1.828989 -3.09768,2.731565 -2.65883,2.884498 -3.48607,5.030171 -4.69207,12.17023 -1.04117,6.16424 -1.842,8.4379 -4.22911,12.00692 -2.94789,4.40746 -7.02036,7.62109 -12.83526,10.12843 -3.751491,1.61761 -4.731401,1.69738 -5.944821,0.48397 z M 73.4882,115.2833 c -1.022524,-0.41198 -1.651985,-1.59419 -1.507087,-2.83049 0.07982,-0.68104 0.715934,-1.42779 2.130014,-2.50047 3.001824,-2.2771 3.832536,-4.1425 3.804496,-8.54316 -0.02057,-3.226017 -0.160231,-3.86588 -1.992897,-9.129387 -1.77311,-5.092466 -1.97225,-5.971568 -1.985345,-8.76421 -0.02848,-6.074009 2.350919,-8.879691 11.421075,-13.467212 6.836393,-3.457724 8.979323,-5.041723 10.472873,-7.741287 1.04492,-1.888669 1.09667,-2.187486 1.12033,-6.468211 0.0225,-4.063374 0.0979,-4.56111 0.79677,-5.26003 1.07869,-1.078685 2.960121,-0.976579 3.986291,0.216339 1.51677,1.763222 1.59395,7.987803 0.14999,12.096125 -1.58261,4.502802 -4.953131,7.673656 -11.896191,11.191465 -6.844892,3.468073 -8.468199,4.54452 -9.494719,6.296142 -1.326132,2.262872 -1.183447,3.874503 0.887479,10.024148 2.919742,8.670228 3.17819,13.692448 0.954918,18.556178 -1.097414,2.40075 -3.608941,5.14751 -5.493995,6.00854 -1.615821,0.73806 -2.174774,0.79064 -3.354002,0.31552 z m 64.2354,-2.43064 c -1.60259,-0.78988 -2.69484,-2.40613 -2.90876,-4.30421 -0.64698,-5.73977 7.11934,-8.34491 10.13457,-3.39956 2.8107,4.60993 -2.34677,10.10855 -7.22581,7.70377 z m -39.828941,-7.98418 c -3.10548,-2.6131 -0.39328,-7.637315 3.439911,-6.372252 4.22931,1.3958 3.21236,7.295062 -1.25757,7.295062 -0.628341,0 -1.547601,-0.38871 -2.182341,-0.92281 z m 2.534491,-22.098769 c -1.985101,-0.832917 -2.429561,-2.931635 -0.978431,-4.620104 0.850141,-0.989172 1.018641,-1.028818 4.873681,-1.146709 3.78499,-0.115739 4.04659,-0.07609 5.01953,0.760789 1.30257,1.120425 1.35206,2.933138 0.11288,4.135549 -0.72225,0.700822 -1.37248,0.849706 -4.49611,1.029471 -2.14877,0.123665 -4.01387,0.05822 -4.53157,-0.158996 z M 65.571555,74.518985 c -0.900887,-0.900888 -0.962734,-1.178898 -0.962734,-4.327614 0,-4.00242 0.44393,-5.498047 1.847336,-6.223775 1.443067,-0.74624 1.943497,-0.679766 3.267108,0.433981 l 1.15355,0.970649 -0.121291,4.174225 c -0.117821,4.054586 -0.150668,4.199462 -1.145895,5.054747 -1.351662,1.161596 -2.824238,1.131616 -4.038068,-0.08221 z M 78.525928,59.209397 c -2.187241,-1.840442 -1.696507,-5.136105 0.92807,-6.232725 2.41449,-1.008838 4.773596,0.421087 5.134552,3.112206 0.17827,1.329124 0.06792,1.60928 -1.089959,2.767159 -1.625009,1.62501 -3.318385,1.745342 -4.972663,0.35336 z"
         id="path135613" />
      <path
         style="fill:#f8b04a;stroke-width:0.365175"
         d="m -10.99711,235.68321 c -2.819444,-1.49095 -3.866977,-4.71942 -2.896306,-8.92634 0.299929,-1.29991 38.759248,-83.06192 48.659426,-103.44679 1.704442,-3.50952 3.599633,-7.48711 4.211539,-8.83909 l 1.112556,-2.45815 4.179371,4.2615 4.179372,4.2615 -0.998741,2.21358 c -0.549304,1.21747 -1.724815,3.72914 -2.612246,5.58149 l -1.613509,3.36792 27.846802,27.84501 c 15.315742,15.31476 27.727465,27.94871 27.581605,28.07545 -0.14586,0.1267 -8.72814,4.21998 -19.071741,9.09608 -10.343596,4.8761 -19.582018,9.25489 -20.529824,9.73061 -1.21452,0.60959 -1.664361,0.71139 -1.523695,0.34481 0.292454,-0.76211 -0.786895,-4.65574 -1.898968,-6.85032 -1.267805,-2.50189 -4.577869,-5.76263 -7.087432,-6.98181 -3.563058,-1.73099 -7.399768,-2.12685 -11.148918,-1.15031 -3.222411,0.83932 -5.195681,1.94052 -7.499701,4.18527 -6.313622,6.15115 -6.785034,16.21286 -1.051059,22.43349 l 1.428618,1.54988 -16.700638,7.88444 c -9.1853501,4.33645 -17.357954,8.05865 -18.1613401,8.27153 -2.3921667,0.63393 -4.6566152,0.47492 -6.4051709,-0.44975 z m 67.457004,-60.89699 c 3.785638,-1.43031 5.414151,-6.30639 3.307033,-9.9019 -1.230394,-2.09953 -3.405248,-3.32553 -5.899284,-3.32553 -3.945582,0 -6.787247,2.87217 -6.787247,6.8601 0,2.80907 1.454893,5.17607 3.834344,6.23816 1.32972,0.59353 4.142697,0.65907 5.545154,0.12918 z m -25.118573,-9.53914 c 2.053378,-2.05338 3.773655,-5.13601 4.423028,-7.92584 0.488976,-2.10075 0.307762,-7.54282 -0.27042,-8.12099 -0.286565,-0.28657 -9.607578,18.66693 -9.597305,19.51531 0.0075,0.6114 3.74724,-1.77102 5.444697,-3.46848 z m 76.427069,-16.37932 c -2.22784,-2.07555 0.66945,-6.72338 5.59136,-8.96965 4.85585,-2.21614 9.81627,-1.95538 18.49222,0.97207 3.01098,1.01597 6.00947,1.80383 6.86517,1.80383 3.24537,0 5.03904,-1.85549 8.69611,-8.99582 1.45398,-2.83883 3.37414,-6.15393 4.2671,-7.3669 3.85224,-5.23291 9.49759,-7.58455 16.42626,-6.84256 1.69645,0.18168 2.71234,0.50027 3.35325,1.05158 1.2002,1.03244 1.29503,2.90758 0.20232,4.00031 -0.7144,0.71439 -1.17901,0.78696 -5.1006,0.79677 -4.06893,0.01 -4.43744,0.0736 -6.47208,1.11281 -2.69668,1.37741 -4.18519,3.2731 -7.16342,9.1229 -3.16271,6.21216 -5.02726,8.89652 -7.401,10.65517 -3.98365,2.95137 -7.24479,2.96915 -15.6435,0.0853 -9.21246,-3.16329 -13.20324,-2.89297 -17.06818,1.15619 -2.29848,2.40802 -3.5921,2.77163 -5.04501,1.41804 z M 95.814729,126.80548 c -0.92693,-0.92693 -1.15138,-2.32687 -0.55248,-3.44593 0.18912,-0.35337 1.46267,-1.11131 2.83011,-1.68429 3.961651,-1.66003 6.277021,-3.08706 8.726471,-5.3784 4.01879,-3.75938 5.60973,-7.04989 6.34355,-13.12028 0.53648,-4.437867 1.2785,-7.274726 2.61921,-10.013714 3.01793,-6.165471 8.55519,-10.364839 16.37932,-12.421815 2.90542,-0.763844 8.68195,-1.289163 10.59547,-0.963557 1.36975,0.233073 1.74463,0.481681 2.25208,1.493435 0.47371,0.944512 0.52596,1.451409 0.23547,2.284706 -0.47844,1.372483 -1.2833,1.785823 -3.47735,1.785823 -5.3829,0 -11.87886,1.690304 -15.15291,3.942907 -0.87176,0.599786 -2.26572,1.828989 -3.09768,2.731565 -2.65883,2.884498 -3.48607,5.030171 -4.69207,12.17023 -1.04117,6.16424 -1.842,8.4379 -4.22911,12.00692 -2.94789,4.40746 -7.02036,7.62109 -12.83526,10.12843 -3.751491,1.61761 -4.731401,1.69738 -5.944821,0.48397 z M 73.4882,115.2833 c -1.022524,-0.41198 -1.651985,-1.59419 -1.507087,-2.83049 0.07982,-0.68104 0.715934,-1.42779 2.130014,-2.50047 3.001824,-2.2771 3.832536,-4.1425 3.804496,-8.54316 -0.02057,-3.226017 -0.160231,-3.86588 -1.992897,-9.129387 -1.77311,-5.092466 -1.97225,-5.971568 -1.985345,-8.76421 -0.02848,-6.074009 2.350919,-8.879691 11.421075,-13.467212 6.836393,-3.457724 8.979323,-5.041723 10.472873,-7.741287 1.04492,-1.888669 1.09667,-2.187486 1.12033,-6.468211 0.0225,-4.063374 0.0979,-4.56111 0.79677,-5.26003 1.07869,-1.078685 2.960121,-0.976579 3.986291,0.216339 1.51677,1.763222 1.59395,7.987803 0.14999,12.096125 -1.58261,4.502802 -4.953131,7.673656 -11.896191,11.191465 -6.844892,3.468073 -8.468199,4.54452 -9.494719,6.296142 -1.326132,2.262872 -1.183447,3.874503 0.887479,10.024148 2.919742,8.670228 3.17819,13.692448 0.954918,18.556178 -1.097414,2.40075 -3.608941,5.14751 -5.493995,6.00854 -1.615821,0.73806 -2.174774,0.79064 -3.354002,0.31552 z m 24.406459,-10.41482 c -3.10548,-2.6131 -0.39328,-7.637315 3.439911,-6.372252 4.22931,1.3958 3.21236,7.295062 -1.25757,7.295062 -0.628341,0 -1.547601,-0.38871 -2.182341,-0.92281 z M 78.525928,59.209397 c -2.187241,-1.840442 -1.696507,-5.136105 0.92807,-6.232725 2.41449,-1.008838 4.773596,0.421087 5.134552,3.112206 0.17827,1.329124 0.06792,1.60928 -1.089959,2.767159 -1.625009,1.62501 -3.318385,1.745342 -4.972663,0.35336 z"
         id="path135611" />
      <path
         style="fill:#f8b631;stroke-width:0.365175"
         d="m -10.99711,235.68321 c -2.81384,-1.488 -3.86694,-4.72055 -2.901085,-8.90507 0.281968,-1.22161 10.5722891,-23.59465 11.0905759,-24.11292 0.07619,-0.0762 0.755479,0.28016 1.509542,0.79189 4.05417,2.75123 9.34322,1.73876 11.8892571,-2.27593 1.421394,-2.2413 1.513606,-5.69157 0.217732,-8.14681 -1.0581111,-2.00474 -3.4987991,-3.91063 -5.3966051,-4.21411 -1.744914,-0.27902 -1.843232,0.15867 1.565734,-6.97029 1.419478,-2.96848 3.3697791,-7.07859 4.3340031,-9.13358 l 1.753131,-3.73636 1.47958,0.52203 c 7.203474,2.54153 16.07154,-0.98426 19.727344,-7.84325 4.27634,-8.02324 1.519774,-17.79564 -6.333735,-22.45396 -0.547216,-0.32458 -0.222316,-1.19733 2.922827,-7.85128 1.946167,-4.11736 3.643419,-7.6054 3.771672,-7.75123 0.12826,-0.14583 14.675675,14.17803 32.327601,31.83081 l 32.094415,32.09597 -2.34213,1.07776 c -1.28817,0.59278 -10.394242,4.89541 -20.235723,9.5614 -9.84148,4.666 -18.077218,8.55877 -18.301641,8.65061 -0.256804,0.10505 -0.473969,-0.51914 -0.585915,-1.68423 -0.254791,-2.65166 -2.469881,-6.914 -4.769504,-9.17764 -3.689288,-3.63155 -7.156984,-4.91195 -12.540361,-4.63036 -2.890506,0.15119 -3.761749,0.36012 -6.067227,1.45498 -9.81431,4.6608 -12.606796,17.53368 -5.583358,25.73833 1.191305,1.39166 1.252151,1.5648 0.661044,1.88106 -3.434336,1.83751 -31.4637811,14.91226 -33.092893,15.43669 -2.9049017,0.93511 -5.2281446,0.88522 -7.194281,-0.15451 z m 67.487521,-60.70859 c 5.892074,-2.46186 5.892074,-10.6496 0,-13.11146 -3.846696,-1.60726 -8.348963,0.60683 -9.434937,4.63981 -1.520727,5.64754 4.104807,10.69872 9.434937,8.47165 z m 51.272779,-26.20746 c -1.09921,-1.17006 -1.00911,-2.76523 0.25475,-4.50992 3.15616,-4.35696 8.93304,-6.48397 15.25617,-5.61722 2.96537,0.40645 4.98666,0.96811 10.44351,2.9019 3.71783,1.31752 5.92768,1.43 7.93862,0.40409 1.76526,-0.90056 2.87405,-2.50321 6.00976,-8.68658 3.89655,-7.68367 6.89935,-10.96099 11.85002,-12.93334 1.70878,-0.68078 2.75386,-0.81563 6.32664,-0.81638 3.75661,-7.3e-4 4.40383,0.0914 5.29505,0.75423 1.33536,0.99319 1.60357,3.3058 0.49929,4.30516 -0.61819,0.55945 -1.43917,0.67132 -5.22122,0.71145 -3.66217,0.0389 -4.75639,0.18003 -5.94839,0.76743 -2.78453,1.37214 -4.57378,3.65172 -7.82276,9.96647 -3.43322,6.67283 -6.04599,9.97118 -9.0587,11.43565 -2.34891,1.14182 -6.95157,1.16708 -10.14151,0.0556 -1.2051,-0.41985 -3.65907,-1.2754 -5.45331,-1.90121 -4.23355,-1.47662 -8.00533,-1.79953 -10.99419,-0.94125 -1.82684,0.52461 -2.50114,0.97231 -4.19761,2.78703 -2.30739,2.46824 -3.62964,2.81398 -5.03612,1.31684 z M 95.814729,126.80548 c -0.98712,-0.98712 -1.16241,-2.5572 -0.39786,-3.56357 0.26139,-0.34406 1.79068,-1.18035 3.39844,-1.85841 3.862871,-1.62915 6.436701,-3.37978 9.200041,-6.25751 3.44264,-3.58515 4.33191,-5.86557 5.54167,-14.21089 1.49177,-10.290639 7.68133,-17.131251 18.08281,-19.98486 5.30516,-1.455448 12.16399,-1.529514 13.17834,-0.142306 0.77083,1.054154 0.61173,2.858956 -0.32721,3.71199 -0.67581,0.614005 -1.5021,0.785765 -4.65599,0.96785 -9.19288,0.53074 -15.01317,3.477055 -18.50649,9.368249 -1.12866,1.903378 -1.83964,4.467685 -2.48062,8.946957 -0.31617,2.20939 -0.80163,4.77062 -1.07881,5.69161 -1.08785,3.61467 -4.21138,8.75942 -6.64931,10.95205 -2.70291,2.43096 -7.06081,5.06548 -10.5541,6.38035 -2.972431,1.11882 -3.630791,1.11861 -4.750911,-0.001 z M 73.555622,115.21465 c -1.981359,-1.14902 -2.207113,-3.10423 -0.505084,-4.37442 2.753064,-2.05456 3.901005,-3.43686 4.483744,-5.39916 1.110035,-3.7379 0.501474,-7.740924 -2.361689,-15.534916 -0.976883,-2.659242 -1.211586,-3.844215 -1.229567,-6.207986 -0.02476,-3.253708 0.398403,-4.61929 2.21502,-7.148114 1.567863,-2.182548 4.285165,-4.039198 10.546461,-7.206075 5.873952,-2.970959 7.621212,-4.320847 9.138452,-7.060139 1.0249,-1.850402 1.08686,-2.201555 1.13843,-6.452223 0.0457,-3.765288 0.16122,-4.613203 0.71145,-5.22121 0.9925,-1.096692 3.308731,-0.82352 4.298241,0.506926 0.66284,0.891209 0.75503,1.538432 0.75425,5.295045 -7.3e-4,3.572778 -0.13561,4.617857 -0.81639,6.326645 -1.998801,5.017029 -5.255471,7.963116 -13.304441,12.035622 -2.865029,1.449603 -5.846526,3.136089 -6.625559,3.747744 -2.716907,2.133176 -3.079141,4.954578 -1.285826,10.015043 1.922721,5.42562 2.49493,7.474472 2.887691,10.339626 0.709777,5.177812 -0.552628,9.977752 -3.543015,13.471352 -2.116322,2.47245 -4.99389,3.74091 -6.502168,2.86624 z m 24.339037,-10.34617 c -3.10548,-2.6131 -0.39328,-7.637315 3.439911,-6.372252 4.22931,1.3958 3.21236,7.295062 -1.25757,7.295062 -0.628341,0 -1.547601,-0.38871 -2.182341,-0.92281 z M 78.540355,59.221538 c -2.153747,-1.812257 -1.682831,-5.159988 0.87625,-6.22924 2.452581,-1.024753 4.80834,0.385701 5.171945,3.09658 0.17827,1.329124 0.06792,1.60928 -1.089959,2.767159 -1.619548,1.619553 -3.318995,1.744829 -4.958236,0.365501 z"
         id="path135609" />
      <path
         style="fill:#fb505f;stroke-width:0.365175"
         d="m -10.99711,235.68321 c -2.81384,-1.488 -3.86694,-4.72055 -2.901085,-8.90507 0.281968,-1.22161 10.5722891,-23.59465 11.0905759,-24.11292 0.07619,-0.0762 0.755479,0.28016 1.509542,0.79189 4.05417,2.75123 9.34322,1.73876 11.8892571,-2.27593 1.421394,-2.2413 1.513606,-5.69157 0.217732,-8.14681 -1.0581111,-2.00474 -3.4987991,-3.91063 -5.3966051,-4.21411 -1.744914,-0.27902 -1.843232,0.15867 1.565734,-6.97029 1.419478,-2.96848 3.3697791,-7.07859 4.3340031,-9.13358 l 1.753131,-3.73636 1.47958,0.52203 c 7.203474,2.54153 16.07154,-0.98426 19.727344,-7.84325 4.27634,-8.02324 1.519774,-17.79564 -6.333735,-22.45396 -0.547216,-0.32458 -0.222316,-1.19733 2.922827,-7.85128 1.946167,-4.11736 3.643419,-7.6054 3.771672,-7.75123 0.12826,-0.14583 14.675675,14.17803 32.327601,31.83081 l 32.094415,32.09597 -2.34213,1.07776 c -1.28817,0.59278 -10.394242,4.89541 -20.235723,9.5614 -9.84148,4.666 -18.077218,8.55877 -18.301641,8.65061 -0.256804,0.10505 -0.473969,-0.51914 -0.585915,-1.68423 -0.254791,-2.65166 -2.469881,-6.914 -4.769504,-9.17764 -3.689288,-3.63155 -7.156984,-4.91195 -12.540361,-4.63036 -2.890506,0.15119 -3.761749,0.36012 -6.067227,1.45498 -9.81431,4.6608 -12.606796,17.53368 -5.583358,25.73833 1.191305,1.39166 1.252151,1.5648 0.661044,1.88106 -3.434336,1.83751 -31.4637811,14.91226 -33.092893,15.43669 -2.9049017,0.93511 -5.2281446,0.88522 -7.194281,-0.15451 z m 67.487521,-60.70859 c 5.892074,-2.46186 5.892074,-10.6496 0,-13.11146 -3.846696,-1.60726 -8.348963,0.60683 -9.434937,4.63981 -1.520727,5.64754 4.104807,10.69872 9.434937,8.47165 z m 41.404248,-70.10614 c -3.10548,-2.6131 -0.39328,-7.637315 3.439911,-6.372252 4.22931,1.3958 3.21236,7.295062 -1.25757,7.295062 -0.628341,0 -1.547601,-0.38871 -2.182341,-0.92281 z M 78.540355,59.221538 c -2.153747,-1.812257 -1.682831,-5.159988 0.87625,-6.22924 2.452581,-1.024753 4.80834,0.385701 5.171945,3.09658 0.17827,1.329124 0.06792,1.60928 -1.089959,2.767159 -1.619548,1.619553 -3.318995,1.744829 -4.958236,0.365501 z"
         id="path135607" />
      <path
         style="fill:#fa3741;stroke-width:0.365175"
         d="m -10.069572,235.97562 c -1.852158,-0.65485 -3.312086,-2.26985 -3.865217,-4.27577 -0.823487,-2.98639 -0.136633,-5.09179 5.7108742,-17.50544 2.9662162,-6.29697 5.4379747,-11.5067 5.4927967,-11.57721 0.05482,-0.0705 0.644538,0.27657 1.310481,0.77122 2.595284,1.92777 5.599149,2.2307 8.540193,0.8612 4.3878991,-2.0432 6.0455221,-6.82014 3.8487351,-11.09127 -1.2368831,-2.40481 -4.0505821,-4.47222 -6.0866011,-4.47222 -0.630022,0 -0.906146,-0.16004 -0.787599,-0.45648 0.100397,-0.25105 2.18904,-4.67467 4.64142,-9.83025 l 4.4588741,-9.37378 1.514341,0.54434 c 0.832887,0.2994 2.664642,0.63274 4.070569,0.74078 8.395965,0.64517 15.97339,-5.46109 17.414511,-14.03347 1.034228,-6.15201 -2.008327,-13.12377 -7.14578,-16.37397 l -1.592615,-1.00757 1.728855,-3.67978 c 0.950869,-2.02388 2.613982,-5.53436 3.695803,-7.80108 l 1.966948,-4.1213 13.081591,13.3394 13.081587,13.33939 -1.256757,1.55457 c -1.307505,1.61735 -5.329482,7.55008 -6.038255,8.90689 -0.236601,0.45293 -0.912063,0.87389 -1.613291,1.00544 -3.811122,0.71498 -6.41055,5.83072 -4.854748,9.55427 0.482977,1.15592 0.467551,1.42323 -0.16765,2.9051 -1.143619,2.66795 -3.508057,10.35878 -4.209414,13.69197 -0.359215,1.70719 -0.69873,3.16204 -0.754467,3.23298 -0.05575,0.071 -1.325646,0.26629 -2.822018,0.43411 -3.809335,0.4272 -7.035998,1.96699 -9.687548,4.62298 -6.258925,6.26943 -6.791911,16.14704 -1.210187,22.42794 l 1.498811,1.68656 -15.600014,7.41826 c -19.6355178,9.33725 -20.907611,9.7843 -24.364229,8.56219 z"
         id="path135605" />
      <path
         style="fill:#ee2134;stroke-width:0.365175"
         d="m -9.4213678,236.16955 c -3.5902872,-0.85301 -5.2748422,-4.0404 -4.4728412,-8.46316 0.265213,-1.46257 2.015049,-5.60572 5.344682,-12.65482 2.7227049,-5.76417 5.1917107,-10.94882 5.4866789,-11.52145 l 0.536307,-1.04115 0.798162,0.74983 c 2.56316596,2.40798 7.98022,2.48595 10.559213,0.15198 0.70386,-0.63697 0.392758,0.0776 -5.204213,11.95316 -4.10002804,8.6994 -6.780552,14.62436 -8.0943862,17.89165 -0.605298,1.50527 -1.2916814,2.85847 -1.5252968,3.00711 -0.5180786,0.32962 -1.8530054,0.30113 -3.4283057,-0.0732 z M 11.870722,195.5454 c -0.137549,-0.86032 -0.666815,-2.27537 -1.176154,-3.14456 -1.0095391,-1.72277 -3.7682111,-3.71471 -5.1445481,-3.71471 -0.469097,0 -0.932997,-0.20872 -1.03089,-0.46382 -0.158456,-0.41294 7.8960221,-17.91993 8.5702281,-18.62802 0.149403,-0.1569 1.237708,-0.0337 2.418455,0.27388 2.496085,0.65015 5.95693,0.72204 7.961712,0.16535 0.77201,-0.21438 1.464094,-0.32931 1.537968,-0.25544 0.106822,0.10686 -12.458202,26.844 -12.795701,27.22803 -0.05005,0.0569 -0.203525,-0.60039 -0.34107,-1.46071 z m 22.760922,-49.47445 c -0.838966,-1.73753 -4.424354,-5.65921 -6.167157,-6.7456 l -0.904902,-0.56408 3.416907,-7.26431 c 1.879297,-3.99538 3.524412,-7.38478 3.655813,-7.53203 0.131395,-0.14724 2.091261,1.58989 4.355247,3.86032 l 4.116335,4.12805 -3.690113,7.813 c -2.029561,4.29717 -3.745299,7.86819 -3.812749,7.93564 -0.06745,0.0675 -0.503673,-0.66649 -0.969381,-1.63099 z"
         id="path135603" />
    </g>
  </g>
</svg>
