<?xml version="1.0" encoding="UTF-8" standalone="no"?>
<!-- Generator: Adobe Illustrator 19.0.0, SVG Export Plug-In . SVG Version: 6.00 Build 0)  -->

<svg
   version="1.1"
   id="Layer_1"
   x="0px"
   y="0px"
   viewBox="0 0 512 512"
   style="enable-background:new 0 0 512 512;"
   xml:space="preserve"
   sodipodi:docname="partify.svg"
   inkscape:version="1.1 (c68e22c387, 2021-05-23)"
   xmlns:inkscape="http://www.inkscape.org/namespaces/inkscape"
   xmlns:sodipodi="http://sodipodi.sourceforge.net/DTD/sodipodi-0.dtd"
   xmlns="http://www.w3.org/2000/svg"
   xmlns:svg="http://www.w3.org/2000/svg"><defs
   id="defs55" /><sodipodi:namedview
   id="namedview53"
   pagecolor="#ffffff"
   bordercolor="#666666"
   borderopacity="1.0"
   inkscape:pageshadow="2"
   inkscape:pageopacity="0.0"
   inkscape:pagecheckerboard="0"
   showgrid="false"
   inkscape:zoom="1.7050781"
   inkscape:cx="156.29782"
   inkscape:cy="302.91867"
   inkscape:window-width="2560"
   inkscape:window-height="1387"
   inkscape:window-x="1912"
   inkscape:window-y="-8"
   inkscape:window-maximized="1"
   inkscape:current-layer="Layer_1" />

<g
   id="g22">
</g>
<g
   id="g24">
</g>
<g
   id="g26">
</g>
<g
   id="g28">
</g>
<g
   id="g30">
</g>
<g
   id="g32">
</g>
<g
   id="g34">
</g>
<g
   id="g36">
</g>
<g
   id="g38">
</g>
<g
   id="g40">
</g>
<g
   id="g42">
</g>
<g
   id="g44">
</g>
<g
   id="g46">
</g>
<g
   id="g48">
</g>
<g
   id="g50">
</g>
<path
   fill="#1ed760"
   d="m 259.38789,165.25109 c -89.56285,0 -162.171338,72.60656 -162.171338,162.16943 0,89.56674 72.608488,162.16749 162.171338,162.16749 89.57256,0 162.17331,-72.60075 162.17331,-162.16749 0,-89.55707 -72.60075,-162.16169 -162.17524,-162.16169 z m 74.37076,233.89486 c -2.9048,4.76388 -9.14045,6.27438 -13.90434,3.35021 -38.07618,-23.25781 -86.00933,-28.52518 -142.45935,-15.62784 -5.43973,1.23938 -10.86203,-2.16893 -12.10142,-7.61059 -1.24519,-5.44167 2.14957,-10.86398 7.60285,-12.10336 61.77549,-14.11928 114.76494,-8.03663 157.51205,18.08725 4.76388,2.92417 6.27438,9.14045 3.35021,13.90433 z m 19.8495,-44.16271 c -3.66006,5.95485 -11.44493,7.83329 -17.3901,4.17324 -43.59143,-26.79973 -110.03982,-34.55944 -161.60008,-18.90834 -6.68686,2.0198 -13.74941,-1.7487 -15.7789,-8.42394 -2.014,-6.68686 1.75643,-13.73585 8.43168,-15.76921 58.89587,-17.87036 132.11438,-9.21404 182.17385,21.54784 5.94516,3.66005 7.8236,11.44493 4.16355,17.38234 z m 1.70415,-45.98112 C 303.04518,277.9575 216.81121,275.10305 166.90862,290.2487 c -8.01339,2.43035 -16.48767,-2.09339 -18.91609,-10.10678 -2.42842,-8.01726 2.09146,-16.48573 10.11065,-18.9219 57.28468,-17.3901 152.51386,-14.0302 212.68978,21.69308 7.22329,4.27782 9.58586,13.58675 5.30611,20.78485 -4.26038,7.20779 -13.59448,9.58392 -20.77903,5.30417 z"
   id="path65"
   style="stroke-width:1.93654" /><g
   id="XMLID_6507_"
   transform="matrix(0.4787999,-0.15603983,0.13071332,0.40108687,35.670663,55.636279)">
	<path
   id="XMLID_92_"
   style="fill:#8fe5d8"
   d="m 436.807,446.532 c 0,6.387 -3.224,12.578 -8.942,16.153 -4.1,2.565 -8.252,5.038 -12.434,7.397 C 365.972,498.031 310.991,512 256,512 199.474,512 142.948,497.227 92.428,467.692 89.646,466.075 86.875,464.406 84.135,462.685 76.12,457.668 72.988,447.51 76.81,438.857 l 12.929,-29.288 21.788,-49.325 11.95,-27.063 6.233,-14.124 96.322,-218.141 1.792,-4.069 15.607,-35.335 12.569,-28.464 9.756,22.097 18.42,41.702 1.803,4.069 96.312,218.141 6.243,14.134 11.94,27.053 21.788,49.325 12.929,29.288 c 1.101,2.493 1.616,5.099 1.616,7.675 z" />
	<path
   id="XMLID_5966_"
   style="fill:#63cec1"
   d="m 284.177,96.851 c -8.435,4.368 -18.016,6.836 -28.177,6.836 -10.161,0 -19.742,-2.468 -28.177,-6.836 L 243.429,61.514 256,33.047 l 9.755,22.095 z" />
	<path
   id="XMLID_5181_"
   style="fill:#63cec1"
   d="m 436.811,446.528 c 0,6.395 -3.232,12.582 -8.944,16.162 -4.102,2.56 -8.249,5.028 -12.432,7.392 L 243.43,61.514 256,33.047 l 29.973,67.871 114.504,259.329 21.782,49.321 12.93,29.289 c 1.101,2.492 1.622,5.098 1.622,7.671 z" />
	<path
   id="XMLID_5188_"
   style="fill:#ffa6b7"
   d="m 371.721,295.145 c -8.643,3.314 -17.402,6.233 -26.242,8.771 -29.208,8.388 -59.343,12.582 -89.467,12.582 -31.769,0 -63.514,-4.658 -94.194,-13.973 -7.241,-2.201 -14.425,-4.658 -21.538,-7.38 l 33.252,-75.297 c 6.963,1.831 13.973,3.43 21.017,4.785 20.287,3.916 40.875,5.874 61.464,5.874 18.897,0 37.805,-1.657 56.47,-4.959 8.724,-1.541 17.402,-3.441 25.999,-5.7 l 12.432,28.142 z" />
	<path
   id="XMLID_5179_"
   style="fill:#fc819c"
   d="m 371.721,295.145 c -8.643,3.314 -17.402,6.233 -26.242,8.771 l -32.997,-78.367 c 8.724,-1.541 17.402,-3.441 25.999,-5.7 l 12.432,28.142 z" />
	<g
   id="XMLID_6500_">
		<path
   id="XMLID_91_"
   style="fill:#ffa6b7"
   d="m 388.533,333.191 c -0.01,0.01 -0.031,0.01 -0.041,0.021 -8.684,3.781 -17.492,7.18 -26.393,10.189 -34.12,11.548 -69.692,17.389 -106.088,17.389 -45.833,0 -90.347,-9.251 -132.316,-27.506 -0.072,-0.031 -0.144,-0.062 -0.216,-0.103 l 6.233,-14.124 c 40.053,17.431 82.548,26.28 126.3,26.28 34.326,0 67.879,-5.45 100.082,-16.215 8.839,-2.957 17.575,-6.315 26.197,-10.065 z" />
	</g>
	<path
   id="XMLID_80_"
   style="fill:#fc819c"
   d="m 388.533,333.191 c -0.01,0.01 -0.031,0.01 -0.041,0.021 -8.684,3.781 -17.492,7.18 -26.393,10.189 l -6.006,-14.278 c 8.839,-2.957 17.575,-6.315 26.197,-10.065 z" />
	<circle
   id="XMLID_3771_"
   style="fill:#ffeb96"
   cx="256"
   cy="42.285"
   r="42.285" />
	<path
   id="XMLID_5897_"
   style="fill:#ffe269"
   d="m 298.289,42.281 c 0,23.358 -18.931,42.289 -42.289,42.289 -10.879,0 -20.797,-4.101 -28.293,-10.856 3.684,1.054 7.589,1.622 11.621,1.622 23.346,0 42.277,-18.931 42.277,-42.289 0,-12.467 -5.399,-23.682 -13.984,-31.421 17.703,5.04 30.668,21.341 30.668,40.655 z" />
	<g
   id="XMLID_4737_">
		<g
   id="XMLID_3774_">
			<path
   id="XMLID_4767_"
   style="fill:#ffc7d4"
   d="m 132.436,386.86 c 0,15.131 -12.258,27.389 -27.389,27.389 -5.677,0 -10.937,-1.726 -15.305,-4.681 l 21.782,-49.321 c 12.002,2.908 20.912,13.717 20.912,26.613 z" />
		</g>
		<g
   id="XMLID_4736_">
			<circle
   id="XMLID_4263_"
   style="fill:#ffa6b7"
   cx="201.528"
   cy="414.24899"
   r="27.388" />
		</g>
		<g
   id="XMLID_4742_">
			<path
   id="XMLID_4802_"
   style="fill:#fc819c"
   d="m 422.259,409.568 c -4.368,2.954 -9.628,4.681 -15.305,4.681 -15.131,0 -27.389,-12.258 -27.389,-27.389 0,-12.895 8.91,-23.705 20.913,-26.613 z" />
		</g>
		<g
   id="XMLID_4738_">
			<circle
   id="XMLID_4741_"
   style="fill:#ffa6b7"
   cx="310.47299"
   cy="414.24899"
   r="27.388" />
		</g>
	</g>
</g></svg>
