<svg xmlns="http://www.w3.org/2000/svg" enable-background="new 0 0 50 50" viewBox="0 0 50 50">
 <g>
  <path d="m25,39.7l-0.6,-0.5c-12.9,-10.5 -16.4,-14.2 -16.4,-20.2c0,-5 4,-9 9,-9c4.1,0 6.4,2.3 8,4.1c1.6,-1.8 3.9,-4.1 8,-4.1c5,0 9,4 9,9c0,6 -3.5,9.7 -16.4,20.2l-0.6,0.5zm-8,-27.7c-3.9,0 -7,3.1 -7,7c0,5.1 3.2,8.5 15,18.1c11.8,-9.6 15,-13 15,-18.1c0,-3.9 -3.1,-7 -7,-7c-3.5,0 -5.4,2.1 -6.9,3.8l-1.1,1.3l-1.1,-1.3c-1.5,-1.7 -3.4,-3.8 -6.9,-3.8z" id="svg_1" fill="#e84a5f"/>
  <path fill="#e84a5f" d="m24.88489,16.87341c6.46341,-16.33012 31.78725,0 0,20.99587c-31.78725,-20.99587 -6.46341,-37.326 0,-20.99587z" id="svg_14" stroke="null" transform="rotate(0.254992 24.8849 24.0454)"/>
 </g>

</svg>