<?xml version="1.0" encoding="UTF-8" standalone="no"?>
<svg
   version="1.0"
   width="500"
   height="500"
   viewBox="0 0 75 75"
   id="svg6"
   sodipodi:docname="volume_none.svg"
   inkscape:version="1.1 (c68e22c387, 2021-05-23)"
   xmlns:inkscape="http://www.inkscape.org/namespaces/inkscape"
   xmlns:sodipodi="http://sodipodi.sourceforge.net/DTD/sodipodi-0.dtd"
   xmlns="http://www.w3.org/2000/svg"
   xmlns:svg="http://www.w3.org/2000/svg">
  <defs
     id="defs10">
    <inkscape:path-effect
       effect="fillet_chamfer"
       id="path-effect3151"
       is_visible="true"
       lpeversion="1"
       satellites_param="F,0,0,1,0,3,0,1 @ F,0,0,1,0,3,0,1 @ F,0,0,1,0,3,0,1 @ F,0,0,1,0,3,0,1"
       unit="px"
       method="auto"
       mode="F"
       radius="3"
       chamfer_steps="1"
       flexible="false"
       use_knot_distance="true"
       apply_no_radius="true"
       apply_with_radius="true"
       only_selected="false"
       hide_knots="false" />
    <inkscape:path-effect
       effect="fillet_chamfer"
       id="path-effect3123"
       is_visible="true"
       lpeversion="1"
       satellites_param="F,0,0,1,0,3,0,1 @ F,0,0,1,0,3,0,1 @ F,0,0,1,0,3,0,1 @ F,0,0,1,0,3,0,1"
       unit="px"
       method="auto"
       mode="F"
       radius="3"
       chamfer_steps="1"
       flexible="false"
       use_knot_distance="true"
       apply_no_radius="true"
       apply_with_radius="true"
       only_selected="false"
       hide_knots="false" />
  </defs>
  <sodipodi:namedview
     id="namedview8"
     pagecolor="#505050"
     bordercolor="#eeeeee"
     borderopacity="1"
     inkscape:pageshadow="0"
     inkscape:pageopacity="0"
     inkscape:pagecheckerboard="0"
     showgrid="false"
     inkscape:zoom="1.746"
     inkscape:cx="250"
     inkscape:cy="250"
     inkscape:window-width="2560"
     inkscape:window-height="1387"
     inkscape:window-x="1912"
     inkscape:window-y="-8"
     inkscape:window-maximized="1"
     inkscape:current-layer="svg6" />
  <path
     d="M39.389,13.769 L22.235,28.606 L6,28.606 L6,47.699 L21.989,47.699 L39.389,62.75 L39.389,13.769z"
     style="stroke:#111;stroke-width:5;stroke-linejoin:round;fill:#111;"
     id="path2" />
  <path
     style="fill:#111111;fill-opacity:1;stroke-width:0.15;stroke-opacity:0.49505"
     id="rect3040"
     width="5.4123702"
     height="31.786736"
     x="5.7995138"
     y="52.506676"
     transform="rotate(-49.993873)"
     inkscape:path-effect="#path-effect3123"
     d="m 8.7995138,52.506676 a 2.7220884,2.7220884 51.196424 0 1 2.4123702,3 v 25.786735 a 3,3 135 0 1 -3,3 2.7220884,2.7220884 51.196424 0 1 -2.4123702,-3 V 55.506676 a 3,3 135 0 1 3,-3 z"
     sodipodi:type="rect" />
  <path
     style="fill:#111111;fill-opacity:1;stroke-width:0.15;stroke-opacity:0.49505"
     id="rect3040-1"
     width="5.4123702"
     height="31.786736"
     x="63.504669"
     y="-35.304836"
     transform="rotate(49.282669)"
     inkscape:path-effect="#path-effect3151"
     sodipodi:type="rect"
     d="m 66.504669,-35.304836 a 2.7220884,2.7220884 51.196424 0 1 2.41237,3 v 25.7867353 a 3,3 135 0 1 -3,3 2.7220884,2.7220884 51.196424 0 1 -2.41237,-3 l 0,-25.7867353 a 3,3 135 0 1 3,-3 z" />
</svg>
