<?xml version="1.0" encoding="iso-8859-1"?>
<!-- Generator: Adobe Illustrator 19.0.0, SVG Export Plug-In . SVG Version: 6.00 Build 0)  -->
<svg version="1.1" id="Layer_1" xmlns="http://www.w3.org/2000/svg" xmlns:xlink="http://www.w3.org/1999/xlink" x="0px" y="0px"
	 viewBox="0 0 512 512" style="enable-background:new 0 0 512 512;" xml:space="preserve">
<g id="XMLID_6507_">
	<path id="XMLID_92_" style="fill:#8FE5D8;" d="M436.807,446.532c0,6.387-3.224,12.578-8.942,16.153
		c-4.1,2.565-8.252,5.038-12.434,7.397C365.972,498.031,310.991,512,256,512c-56.526,0-113.052-14.773-163.572-44.308
		c-2.782-1.617-5.553-3.286-8.293-5.007c-8.015-5.017-11.147-15.175-7.325-23.828l12.929-29.288l21.788-49.325l11.95-27.063
		l6.233-14.124l96.322-218.141l1.792-4.069l15.607-35.335L256,33.048l9.756,22.097l18.42,41.702l1.803,4.069l96.312,218.141
		l6.243,14.134l11.94,27.053l21.788,49.325l12.929,29.288C436.292,441.35,436.807,443.956,436.807,446.532z"/>
	<path id="XMLID_5966_" style="fill:#63CEC1;" d="M284.177,96.851c-8.435,4.368-18.016,6.836-28.177,6.836
		c-10.161,0-19.742-2.468-28.177-6.836l15.606-35.337L256,33.047l9.755,22.095L284.177,96.851z"/>
	<path id="XMLID_5181_" style="fill:#63CEC1;" d="M436.811,446.528c0,6.395-3.232,12.582-8.944,16.162
		c-4.102,2.56-8.249,5.028-12.432,7.392L243.43,61.514L256,33.047l29.973,67.871l114.504,259.329l21.782,49.321l12.93,29.289
		C436.29,441.349,436.811,443.955,436.811,446.528z"/>
	<path id="XMLID_5188_" style="fill:#FFA6B7;" d="M371.721,295.145c-8.643,3.314-17.402,6.233-26.242,8.771
		c-29.208,8.388-59.343,12.582-89.467,12.582c-31.769,0-63.514-4.658-94.194-13.973c-7.241-2.201-14.425-4.658-21.538-7.38
		l33.252-75.297c6.963,1.831,13.973,3.43,21.017,4.785c20.287,3.916,40.875,5.874,61.464,5.874c18.897,0,37.805-1.657,56.47-4.959
		c8.724-1.541,17.402-3.441,25.999-5.7l12.432,28.142L371.721,295.145z"/>
	<path id="XMLID_5179_" style="fill:#FC819C;" d="M371.721,295.145c-8.643,3.314-17.402,6.233-26.242,8.771l-32.997-78.367
		c8.724-1.541,17.402-3.441,25.999-5.7l12.432,28.142L371.721,295.145z"/>
	<g id="XMLID_6500_">
		<path id="XMLID_91_" style="fill:#FFA6B7;" d="M388.533,333.191c-0.01,0.01-0.031,0.01-0.041,0.021
			c-8.684,3.781-17.492,7.18-26.393,10.189c-34.12,11.548-69.692,17.389-106.088,17.389c-45.833,0-90.347-9.251-132.316-27.506
			c-0.072-0.031-0.144-0.062-0.216-0.103l6.233-14.124c40.053,17.431,82.548,26.28,126.3,26.28c34.326,0,67.879-5.45,100.082-16.215
			c8.839-2.957,17.575-6.315,26.197-10.065L388.533,333.191z"/>
	</g>
	<path id="XMLID_80_" style="fill:#FC819C;" d="M388.533,333.191c-0.01,0.01-0.031,0.01-0.041,0.021
		c-8.684,3.781-17.492,7.18-26.393,10.189l-6.006-14.278c8.839-2.957,17.575-6.315,26.197-10.065L388.533,333.191z"/>
	<circle id="XMLID_3771_" style="fill:#FFEB96;" cx="256" cy="42.285" r="42.285"/>
	<path id="XMLID_5897_" style="fill:#FFE269;" d="M298.289,42.281c0,23.358-18.931,42.289-42.289,42.289
		c-10.879,0-20.797-4.101-28.293-10.856c3.684,1.054,7.589,1.622,11.621,1.622c23.346,0,42.277-18.931,42.277-42.289
		c0-12.467-5.399-23.682-13.984-31.421C285.324,6.666,298.289,22.967,298.289,42.281z"/>
	<g id="XMLID_4737_">
		<g id="XMLID_3774_">
			<path id="XMLID_4767_" style="fill:#FFC7D4;" d="M132.436,386.86c0,15.131-12.258,27.389-27.389,27.389
				c-5.677,0-10.937-1.726-15.305-4.681l21.782-49.321C123.526,363.155,132.436,373.964,132.436,386.86z"/>
		</g>
		<g id="XMLID_4736_">
			<circle id="XMLID_4263_" style="fill:#FFA6B7;" cx="201.528" cy="414.249" r="27.388"/>
		</g>
		<g id="XMLID_4742_">
			<path id="XMLID_4802_" style="fill:#FC819C;" d="M422.259,409.568c-4.368,2.954-9.628,4.681-15.305,4.681
				c-15.131,0-27.389-12.258-27.389-27.389c0-12.895,8.91-23.705,20.913-26.613L422.259,409.568z"/>
		</g>
		<g id="XMLID_4738_">
			<circle id="XMLID_4741_" style="fill:#FFA6B7;" cx="310.473" cy="414.249" r="27.388"/>
		</g>
	</g>
</g>
<g>
</g>
<g>
</g>
<g>
</g>
<g>
</g>
<g>
</g>
<g>
</g>
<g>
</g>
<g>
</g>
<g>
</g>
<g>
</g>
<g>
</g>
<g>
</g>
<g>
</g>
<g>
</g>
<g>
</g>
</svg>
