<svg width="72" height="72" xmlns="http://www.w3.org/2000/svg" fill="none">

 <g>
  <title>Layer 1</title>
  <path id="svg_1" fill="#5865F2" d="m60.44348,12.96063c-4.5253,-2.0764 -9.378,-3.6062 -14.4518,-4.48238c-0.0924,-0.01691 -0.1847,0.02535 -0.2323,0.10987c-0.6241,1.11001 -1.3154,2.55811 -1.7995,3.69631c-5.4572,-0.817 -10.8864,-0.817 -16.2317,0c-0.4842,-1.1635 -1.2006,-2.5863 -1.8275,-3.69631c-0.0476,-0.0817 -0.1399,-0.12396 -0.2323,-0.10987c-5.071,0.87338 -9.9237,2.40318 -14.4518,4.48238c-0.0392,0.0169 -0.0728,0.0451 -0.0951,0.0817c-9.20455,13.7514 -11.72606,27.1648 -10.48909,40.4119c0.0056,0.0648 0.04198,0.1268 0.09235,0.1662c6.0729,4.4598 11.95554,7.1673 17.72894,8.9619c0.0924,0.0282 0.1903,-0.0056 0.2491,-0.0817c1.3657,-1.865 2.5831,-3.8315 3.6269,-5.8995c0.0616,-0.1211 0.0028,-0.2648 -0.1231,-0.3127c-1.931,-0.7325 -3.7697,-1.6256 -5.5384,-2.6398c-0.1399,-0.0817 -0.1511,-0.2818 -0.0224,-0.3776c0.3722,-0.2789 0.7445,-0.5691 1.0999,-0.8621c0.0643,-0.0535 0.1539,-0.0648 0.2295,-0.031c11.6196,5.3051 24.1992,5.3051 35.6817,0c0.0756,-0.0366 0.1652,-0.0253 0.2323,0.0282c0.3555,0.293 0.7277,0.586 1.1027,0.8649c0.1287,0.0958 0.1203,0.2959 -0.0196,0.3776c-1.7687,1.0339 -3.6074,1.9073 -5.5412,2.637c-0.1259,0.0479 -0.1819,0.1944 -0.1203,0.3155c1.0662,2.0651 2.2836,4.0316 3.6241,5.8967c0.056,0.0789 0.1567,0.1127 0.2491,0.0845c5.8014,-1.7946 11.684,-4.5021 17.7569,-8.9619c0.0532,-0.0394 0.0868,-0.0986 0.0924,-0.1634c1.4804,-15.3151 -2.4796,-28.6185 -10.4975,-40.4119c-0.0196,-0.0394 -0.0531,-0.0676 -0.0923,-0.0845zm-36.3786,32.4275c-3.4983,0 -6.3808,-3.2117 -6.3808,-7.156c0,-3.9443 2.8266,-7.156 6.3808,-7.156c3.5821,0 6.4367,3.2399 6.3807,7.156c0,3.9443 -2.8266,7.156 -6.3807,7.156zm23.5919,0c-3.4982,0 -6.3807,-3.2117 -6.3807,-7.156c0,-3.9443 2.8265,-7.156 6.3807,-7.156c3.5822,0 6.4367,3.2399 6.3808,7.156c0,3.9443 -2.7986,7.156 -6.3808,7.156z"/>
 </g>
</svg>